<svg width="482" height="356" viewBox="0 0 482 356" fill="none" xmlns="http://www.w3.org/2000/svg">
<g clip-path="url(#clip0_2_157)">
<path opacity="0.18" d="M367.54 19.3158C356.71 15.6814 346.835 9.94379 336.057 6.22213C321.428 1.18239 305.624 -0.0193983 289.967 -1.46748e-05C239.479 -1.46748e-05 187.973 12.9967 148.515 42.0819C132.795 53.6442 118.669 67.8815 99.8533 74.3266C84.962 79.4438 67.4576 79.5698 55.4102 89.1357C41.9356 99.7967 40.267 118.395 41.4739 134.774C42.6807 151.154 45.5666 168.454 37.9898 183.301C33.5402 192.024 25.9109 198.915 19.6564 206.63C11.1798 217.102 5.23234 229.13 2.21468 241.904C-0.802974 254.678 -0.820682 267.901 2.16275 280.682C5.14618 293.463 11.0614 305.505 19.5099 315.996C27.9583 326.488 38.7437 335.185 51.139 341.501C75.9159 354.1 105.289 356.388 133.592 355.951C159.429 355.554 186.452 352.753 207.891 339.427C221.702 330.83 232.553 318.231 247.549 311.544C265.631 303.499 286.724 305.263 306.799 305.147C330.579 304.992 354.947 301.735 375.694 290.997C396.441 280.258 413.054 261.039 414.943 239.155C416.38 222.359 409.402 204.846 415.499 188.981C417.818 182.943 421.9 177.622 426.276 172.66C442.374 154.333 463.688 139.155 473.857 117.445C479.367 105.699 481.203 92.7604 481.854 79.9769C482.651 63.8788 480.301 45.3286 465.997 36.0826C453.026 27.6992 437.054 31.5759 422.435 29.6376C404.469 27.2243 384.656 25.034 367.54 19.3158Z" fill="#06B461"/>
<path d="M176.597 185.676C176.597 185.676 130.171 175.16 99.0656 199.022C67.9607 222.883 103.452 212.784 114.807 216.021C126.162 219.258 143.278 225.325 143.278 225.325C143.278 225.325 190.617 204.672 176.597 185.676Z" fill="#3E3E54"/>
<path d="M176.597 185.676C176.597 185.676 130.171 175.16 99.0656 199.022C67.9607 222.883 103.452 212.784 114.807 216.021C126.162 219.258 143.278 225.325 143.278 225.325C143.278 225.325 190.617 204.672 176.597 185.676Z" fill="url(#paint0_linear_2_157)"/>
<path d="M160.331 253.751C160.331 253.751 189.536 235.957 207.639 241.346L222.824 245.659C222.824 245.659 213.484 300.146 161.496 305.002C161.496 305.002 150.403 306.077 162.671 287.198C174.939 268.318 160.331 253.751 160.331 253.751Z" fill="#3E3E54"/>
<path d="M160.331 253.751C160.331 253.751 189.536 235.957 207.639 241.346L222.824 245.659C222.824 245.659 213.484 300.146 161.496 305.002C161.496 305.002 150.403 306.077 162.671 287.198C174.939 268.318 160.331 253.751 160.331 253.751Z" fill="url(#paint1_linear_2_157)"/>
<path d="M241.672 76.2165C243.761 77.2433 246.008 77.9688 248.336 78.3681C251.767 78.7848 255.178 77.7769 258.504 76.9143C262.378 75.9142 266.305 75.0958 270.268 74.4623C272.451 74.1231 275.001 73.9389 276.565 75.4315C278.129 76.924 277.814 79.502 276.45 81.1593C275.085 82.8166 272.976 83.7664 270.94 84.6678L258.998 89.9304C256.954 90.9037 254.818 91.7017 252.617 92.3146C243.519 94.5825 234.074 90.3763 226.151 85.6951C223.097 83.873 219.791 81.4695 219.665 78.1161C219.705 76.7854 220.003 75.4722 220.547 74.2394C220.972 72.7098 221.835 71.314 223.044 70.1979C226.654 67.3194 238.03 74.6367 241.672 76.2165Z" fill="#06B461"/>
<path d="M241.42 76.3328C243.509 77.3595 245.757 78.0851 248.084 78.4844C251.515 78.9011 254.926 77.8932 258.252 77.0306C262.139 76.0278 266.08 75.2126 270.058 74.5883C272.231 74.2394 274.791 74.0552 276.355 75.5574C277.919 77.0597 277.604 79.6183 276.24 81.2756C274.875 82.9329 272.766 83.8827 270.73 84.7841L258.788 90.0467C256.744 91.0199 254.609 91.818 252.407 92.4309C243.309 94.6988 233.864 90.4925 225.941 85.8114C222.887 83.999 219.581 81.5858 219.455 78.2324C219.487 76.9009 219.786 75.5864 220.337 74.3557C220.745 72.8452 221.577 71.4611 222.751 70.3432C226.403 67.4357 237.736 74.7627 241.42 76.3328Z" fill="url(#paint2_linear_2_157)"/>
<path d="M265.41 117.145C262.02 121.991 257.665 126.265 253.341 130.462C249.018 134.658 244.694 138.787 238.943 140.754C236.11 141.723 232.752 142.053 230.17 140.58C227.368 138.99 226.214 135.589 226.738 132.584C227.441 129.59 229.053 126.843 231.387 124.666C233.177 122.626 235.165 120.741 237.327 119.035C239.699 117.368 242.217 117.455 245.313 117.252C252.002 116.804 258.716 116.769 265.41 117.145Z" fill="#3E3E54"/>
<path d="M265.41 117.145C262.02 121.991 257.665 126.265 253.341 130.462C249.018 134.658 244.694 138.787 238.943 140.754C236.11 141.723 232.752 142.053 230.17 140.58C227.368 138.99 226.214 135.589 226.738 132.584C227.441 129.59 229.053 126.843 231.387 124.666C233.177 122.626 235.165 120.741 237.327 119.035C239.699 117.368 242.217 117.455 245.313 117.252C252.002 116.804 258.716 116.769 265.41 117.145Z" fill="url(#paint3_linear_2_157)"/>
<path d="M443.927 73.7354C443.51 76.0775 442.956 78.3972 442.269 80.6844C438.633 92.6721 433.484 104.223 426.926 115.1C412.318 139.843 385.558 172.282 337.033 202.326C260.845 249.681 193.975 257.57 169.303 258.762C162.776 259.101 159.197 258.975 159.197 258.975L136.855 226.992C136.855 226.992 162.041 192.363 207.502 156.048C228.468 139.196 251.219 124.338 275.411 111.698C289.888 104.165 304.877 97.5025 320.284 91.7525C341.428 83.7449 363.488 77.9802 386.041 74.5689C422.571 69.3159 443.927 73.7354 443.927 73.7354Z" fill="#06B461"/>
<path d="M264.864 125.703C263.814 127.496 267.078 133.214 268.862 134.426C270.646 135.637 272.829 136.364 274.109 138.05C274.366 138.344 274.55 138.687 274.646 139.054C274.742 139.421 274.749 139.803 274.665 140.173C274.33 141.258 272.986 141.743 271.822 142.111L240.507 151.008C239.639 151.178 238.836 151.555 238.177 152.103C236.918 153.344 237.547 155.515 238.985 156.552C240.543 157.476 242.388 157.898 244.232 157.754C254.359 157.754 265.483 153.877 273.962 158.956C276.373 160.547 278.465 162.515 280.143 164.771C286.123 172.098 290.702 180.315 293.681 189.068C294.594 191.762 295.35 194.699 294.3 197.355C289.345 195.484 285.086 192.322 282.043 188.254C278.244 183.137 276.292 176.566 270.762 173.057C266.721 170.489 261.495 170.15 256.605 170.528C251.715 170.906 246.898 172.04 241.997 172.098C231.083 172.224 221.008 167.252 211.396 162.406C209.391 161.437 207.114 159.993 207.072 157.88C207.067 157.299 207.219 156.726 207.513 156.213C228.479 139.361 251.23 124.503 275.421 111.863C289.899 104.33 304.888 97.6673 320.294 91.9172C324.45 97.3737 265.315 124.957 264.864 125.703Z" fill="url(#paint4_linear_2_157)"/>
<path d="M443.539 74.0843C443.539 74.0843 440.947 91.045 426.538 115.449C421.904 114.108 417.351 112.542 412.896 110.758C394.615 103.528 387.08 79.8897 385.695 74.9856C422.183 69.6745 443.539 74.0843 443.539 74.0843Z" fill="url(#paint5_linear_2_157)"/>
<path opacity="0.31" d="M356.584 136.5C366.205 136.5 374.004 129.297 374.004 120.411C374.004 111.526 366.205 104.323 356.584 104.323C346.962 104.323 339.163 111.526 339.163 120.411C339.163 129.297 346.962 136.5 356.584 136.5Z" fill="#3E3E54"/>
<path opacity="0.31" d="M310.587 161.175C320.208 161.175 328.008 153.972 328.008 145.087C328.008 136.201 320.208 128.998 310.587 128.998C300.966 128.998 293.167 136.201 293.167 145.087C293.167 153.972 300.966 161.175 310.587 161.175Z" fill="#3E3E54"/>
<path opacity="0.31" d="M260.215 192.732C269.836 192.732 277.635 185.528 277.635 176.643C277.635 167.758 269.836 160.555 260.215 160.555C250.594 160.555 242.794 167.758 242.794 176.643C242.794 185.528 250.594 192.732 260.215 192.732Z" fill="#3E3E54"/>
<path d="M140.654 216.389L169.86 259.537L154.087 264.936L130.139 227.719L140.654 216.389Z" fill="#3E3E54"/>
<path d="M226.193 164.926C239.993 168.008 254.391 164.683 268.316 162.115C269.747 161.737 271.261 161.717 272.703 162.057C274.351 162.59 275.453 163.995 276.418 165.342C281.23 172.092 285.238 179.303 288.371 186.849C290.26 191.394 292.033 196.337 296.231 199.283C300.429 202.23 307.922 201.571 309.443 196.909C302.276 178.291 293.45 160.264 284.635 142.257C283.837 140.628 282.956 138.903 281.319 137.944C279.885 137.245 278.291 136.876 276.67 136.868L226.969 132.904C215.803 132.012 199.013 130.646 202.759 144.99C205.341 154.992 215.698 162.58 226.193 164.926Z" fill="#3E3E54"/>
<path d="M226.193 164.926C239.993 168.008 254.391 164.683 268.316 162.115C269.747 161.737 271.261 161.717 272.703 162.057C274.351 162.59 275.453 163.995 276.418 165.342C281.23 172.092 285.238 179.303 288.371 186.849C290.26 191.394 292.033 196.337 296.231 199.283C300.429 202.23 307.922 201.571 309.443 196.909C302.276 178.291 293.45 160.264 284.635 142.257C283.837 140.628 282.956 138.903 281.319 137.944C279.885 137.245 278.291 136.876 276.67 136.868L226.969 132.904C215.803 132.012 199.013 130.646 202.759 144.99C205.341 154.992 215.698 162.58 226.193 164.926Z" fill="url(#paint6_linear_2_157)"/>
<path d="M238.66 125.247C238.66 128.378 238.66 131.615 237.138 134.426C235.197 138.108 231.01 140.425 226.644 141.365C225.262 141.652 223.859 141.843 222.446 141.937C219.433 142.059 216.415 141.998 213.411 141.753C207.649 141.404 201.111 140.677 197.669 136.393C195.256 133.379 195.046 129.366 194.951 125.616C194.699 115.362 194.647 105.108 194.563 94.8539C194.563 88.9903 191.992 81.0818 192.894 75.4702C193.199 73.1535 194.177 70.9559 195.723 69.1099C197.269 67.264 199.327 65.8383 201.678 64.9837C210.189 61.6206 222.551 64.092 228.585 70.4983C233.423 75.6156 235.291 82.5452 236.425 89.2617C238.492 101.115 238.649 113.21 238.66 125.247Z" fill="#06B461"/>
<path d="M219.728 105.709C220.274 113.462 220.568 121.216 220.61 128.969C220.543 131.106 220.655 133.245 220.946 135.366C221.229 136.984 222.352 138.477 222.551 140.008C222.637 140.653 222.616 141.307 222.488 141.946C219.475 142.069 216.457 142.008 213.453 141.762C207.691 141.413 201.153 140.686 197.711 136.403C195.298 133.389 195.088 129.376 194.993 125.625C194.741 115.371 194.689 105.117 194.605 94.8635C194.605 89 192.034 81.0915 192.936 75.4799C193.241 73.1631 194.219 70.9656 195.765 69.1196C197.311 67.2737 199.369 65.848 201.72 64.9933C202.394 65.1975 203.048 65.457 203.672 65.7687C207.356 67.5714 210.136 70.6146 212.676 73.6772C214.001 75.2011 215.128 76.8633 216.034 78.6297C216.995 80.9457 217.589 83.3776 217.797 85.8501C218.448 90.9384 218.973 96.0459 219.403 101.163C219.634 103.896 218.847 105.621 222.037 106.145C224.75 106.582 227.491 106.851 230.243 106.949C233.045 107.066 236.362 106.765 237.841 104.565C238.334 103.715 238.551 102.753 238.468 101.792C238.384 100.831 238.002 99.9132 237.369 99.1473C236.066 97.6345 234.3 96.5198 232.3 95.949C230.348 95.29 228.291 94.9217 226.319 94.3111C224.314 93.7455 222.465 92.7905 220.893 91.5102C219.31 90.2176 218.314 88.4215 218.102 86.4801" fill="url(#paint7_linear_2_157)"/>
<path d="M207.156 63.3554C207.045 64.2864 207.087 65.2275 207.282 66.1467C207.901 68.4243 210.252 69.9168 212.582 70.8569C214.019 71.4384 215.94 71.8261 216.979 70.7115C217.787 69.849 217.587 68.5502 217.335 67.426L215.95 61.3105C215.696 59.9418 215.292 58.6007 214.743 57.3077C214.135 55.9993 210.115 50.6688 208.08 52.0257C207.229 52.5878 207.586 56.4258 207.534 57.3853L207.156 63.3554Z" fill="url(#paint8_linear_2_157)"/>
<path d="M207.366 52.2001C207.94 54.7278 209.188 57.0831 210.997 59.0522C212.833 61.0267 215.423 62.2698 218.228 62.5219C219.25 62.6319 220.284 62.4456 221.187 61.9889C222.295 61.1869 223.106 60.0859 223.506 58.839C225.888 53.4988 228.302 47.6256 226.497 42.0819C226.044 40.3561 224.876 38.8634 223.244 37.9241C221.497 37.2348 219.542 37.1353 217.724 37.643C214.576 38.3021 209.853 39.814 207.817 42.2951C205.781 44.7762 206.673 49.4767 207.366 52.2001Z" fill="url(#paint9_linear_2_157)"/>
<path d="M218.92 28.1354C216.614 27.1788 214.074 26.8014 211.559 27.0414C209.044 27.2813 206.642 28.1301 204.596 29.5019C201.951 31.3337 200.062 33.9698 197.365 35.7241C194.825 37.3814 191.751 38.1373 188.907 39.3003C188.56 39.436 188.172 39.6396 188.109 39.9788C188.004 40.5021 188.665 40.8413 188.928 41.3162C189.326 42.0431 188.686 42.8766 188.088 43.4872L184.667 46.9375C184.247 47.2744 183.963 47.7318 183.859 48.2362C183.744 49.564 185.779 49.942 187.217 49.8257L191.961 49.438C189.172 51.1706 186.759 53.3697 184.845 55.9218C185.895 56.9492 187.836 56.4646 189.127 55.6795C190.418 54.8945 191.646 53.7412 193.178 53.8187C190.88 57.2399 198.079 57.1042 200.23 57.0558C202.058 56.9511 203.844 56.5026 205.477 55.7377C206.261 55.4562 206.975 55.0309 207.576 54.4874C207.878 54.2166 208.103 53.8813 208.231 53.5111C208.359 53.1409 208.386 52.7472 208.311 52.3649C208.191 52.0304 208.04 51.7061 207.859 51.3957C207.559 50.7854 207.409 50.1212 207.42 49.4508C207.431 48.7805 207.602 48.1207 207.922 47.519C208.027 47.3349 208.164 47.1313 208.394 47.1023C208.582 47.0963 208.765 47.155 208.909 47.267L210.493 48.2362C210.408 46.2694 211.167 44.3511 212.606 42.8989C214.045 41.4467 216.046 40.5783 218.175 40.4827C221.449 40.318 227.442 41.8105 226.654 36.8774C226.025 33.1751 222.499 29.6376 218.92 28.1354Z" fill="#3E3E54"/>
<path d="M224.167 40.4343C224.787 40.1719 225.312 39.749 225.677 39.217C226.042 38.685 226.232 38.0667 226.224 37.4369C226.216 36.8071 226.011 36.1929 225.633 35.6687C225.255 35.1445 224.72 34.7328 224.094 34.4835C222.581 33.7377 220.872 33.4018 219.162 33.5143C216.289 33.4551 213.439 34.002 210.829 35.1135C207.261 36.7611 204.68 39.7946 201.384 41.8978C198.59 43.5214 195.522 44.7038 192.307 45.3965C190.828 45.6265 189.427 46.1706 188.214 46.986C188.025 47.1507 187.836 47.3736 187.92 47.5966C187.981 47.6981 188.067 47.7846 188.172 47.8485C188.576 48.1034 189.034 48.2743 189.516 48.3496C189.998 48.4249 190.492 48.4028 190.964 48.2847C191.509 48.149 192.013 47.8776 192.517 47.7032C194.092 47.3447 195.738 47.3447 197.313 47.7032C199.521 48.0949 201.794 48.0387 203.976 47.5384C205.808 46.8941 207.566 46.0824 209.224 45.1154C209.876 44.8219 210.597 44.682 211.322 44.7084C210.768 45.7957 210.491 46.9861 210.514 48.1878L208.93 47.2186C208.848 47.161 208.755 47.1193 208.656 47.096C208.557 47.0727 208.454 47.0682 208.353 47.0829C208.132 47.0829 207.985 47.3155 207.88 47.4996C207.563 48.1021 207.393 48.7616 207.382 49.4315C207.371 50.1014 207.52 50.7653 207.817 51.3764C207.999 51.6851 208.146 52.0097 208.258 52.3455C208.342 52.7262 208.321 53.1204 208.196 53.4914C208.072 53.8625 207.847 54.1984 207.544 54.4681C206.935 55.0042 206.224 55.4314 205.446 55.728C203.809 56.4847 202.025 56.9297 200.198 57.0364C198.1 57.0364 190.869 57.2205 193.157 53.7993C191.625 53.7993 190.323 54.9333 189.106 55.6601C187.889 56.387 185.958 56.9201 184.824 55.9024C186.735 53.3481 189.148 51.1485 191.94 49.4186L187.196 49.8063C185.748 49.9226 183.723 49.5446 183.838 48.2168C183.942 47.7147 184.222 47.2583 184.636 46.9181L188.067 43.4678C188.665 42.8573 189.305 42.0238 188.907 41.2969C188.644 40.822 187.983 40.4731 188.088 39.9594C188.151 39.6105 188.539 39.4167 188.886 39.2713C191.719 38.118 194.804 37.3329 197.344 35.7144C200.052 33.9602 201.941 31.3046 204.575 29.4922C206.618 28.1152 209.02 27.2624 211.536 27.0207C214.052 26.7789 216.593 27.1569 218.899 28.116C222.467 29.657 226.004 33.1557 226.592 36.8386C226.98 39.2325 225.836 40.1242 224.167 40.4343Z" fill="url(#paint10_linear_2_157)"/>
<path d="M283.481 69.9556C286.451 69.3256 289.914 69.9556 291.792 72.1847C292.03 72.4337 292.177 72.7457 292.212 73.0763C292.222 73.1517 292.216 73.2282 292.193 73.3012C292.17 73.3742 292.132 73.4422 292.08 73.5011C292.028 73.56 291.963 73.6085 291.89 73.6438C291.818 73.6791 291.738 73.7003 291.656 73.7063H289.462C287.972 74.5521 286.591 75.5537 285.349 76.6914C283.54 78.0539 281.395 78.9828 279.105 79.3954C276.061 79.9478 272.283 78.0385 274.644 74.9856C276.491 72.5917 280.437 70.6049 283.481 69.9556Z" fill="url(#paint11_linear_2_157)"/>
<path d="M278.213 94.9314C278.7 95.1478 279.125 95.4665 279.455 95.862C279.785 96.2574 280.01 96.7188 280.112 97.209C280.128 97.3723 280.096 97.5366 280.018 97.6839C279.734 98.1297 279.031 98.0231 278.475 97.9358C274.854 97.335 271.412 99.9421 267.729 99.8742C266.043 99.8341 264.441 99.1912 263.258 98.0812C262.209 97.0442 261.159 95.0864 261.747 93.6327C262.366 91.9657 264.465 91.9366 266.102 91.8882C270.38 91.7418 274.605 92.8034 278.213 94.9314Z" fill="url(#paint12_linear_2_157)"/>
<path d="M302.171 58.5967L316.443 48.6238C316.443 48.6238 319.948 47.5384 321.123 48.8952C322.299 50.2521 320.977 91.5974 320.977 91.5974L303.304 99.283L302.171 58.5967Z" fill="#06B461"/>
<path d="M302.381 58.7131L316.684 48.7402C316.684 48.7402 320.19 47.6547 321.365 49.0115C322.54 50.3684 321.008 91.6556 321.008 91.6556L303.546 99.409L302.381 58.7131Z" fill="url(#paint13_linear_2_157)"/>
<path d="M306.61 58.5192L321.365 49.0212C321.365 49.0212 318.731 47.267 316.685 48.7498C314.638 50.2327 302.381 58.713 302.381 58.713L306.61 58.5192Z" fill="url(#paint14_linear_2_157)"/>
<path d="M301.625 205.505C301.74 205.768 301.908 206.008 302.118 206.213C302.383 206.416 302.696 206.559 303.031 206.63C303.891 206.851 304.793 206.896 305.674 206.762C306.555 206.628 307.394 206.318 308.132 205.854C308.744 205.494 309.224 204.97 309.506 204.352C309.772 203.388 309.702 202.37 309.307 201.445L308.436 198.653C308.43 198.614 308.411 198.577 308.384 198.547C308.31 198.547 308.216 198.547 308.142 198.547C305.613 199.942 302.633 198.547 300.219 199.516C298.183 200.427 300.88 204.09 301.625 205.505Z" fill="url(#paint15_linear_2_157)"/>
<path d="M304.563 205.312C303.713 205.36 302.868 205.467 302.034 205.631C301.62 205.725 301.239 205.915 300.927 206.183C300.614 206.451 300.381 206.788 300.25 207.163C300.179 207.901 300.391 208.638 300.849 209.246C301.457 210.283 302.066 211.32 302.717 212.338C303.067 213.02 303.625 213.593 304.322 213.986C305.029 214.246 305.806 214.3 306.547 214.141C308.777 213.746 310.946 213.095 313.001 212.202C317.199 210.568 321.365 208.82 325.499 206.959C326.182 206.649 326.937 206.252 327.074 205.564C327.109 205.323 327.08 205.079 326.99 204.851C326.901 204.623 326.753 204.419 326.559 204.255C326.166 203.934 325.71 203.684 325.216 203.519C322.27 202.476 319.171 201.846 316.023 201.648C314.911 201.541 313.043 201.057 312.004 201.522C310.965 201.987 309.968 203.131 308.856 203.751C307.561 204.546 306.098 205.078 304.563 205.312Z" fill="#3E3E54"/>
<path d="M262.072 99.2346C260.245 100.255 258.208 100.915 256.091 101.173L244.704 103.295C242.205 103.877 239.631 104.138 237.054 104.071C234.715 103.835 232.421 103.31 230.233 102.51C221.397 99.6029 207.387 96.1817 200.608 89.8432C195.476 84.9973 196.735 75.4024 203.368 72.9988C204.63 72.5474 205.985 72.362 207.334 72.4561C212.959 72.7856 216.779 77.5637 221.103 80.9267C230.38 88.2344 243.33 89.504 255.524 90.3375H255.776H256.594C259.743 90.5507 263.625 91.3067 264.486 94.0882C265.021 96.0557 263.825 98.1006 262.072 99.2346Z" fill="#06B461"/>
<path d="M272.441 115.158L303.545 99.4187L306.61 58.558C306.61 58.558 301.887 56.7553 301.499 60.8937C301.111 65.0321 297.805 96.1332 297.805 96.1332L270.94 109.256C270.94 109.256 266.942 112.987 272.441 115.158Z" fill="#06B461"/>
<path d="M153.352 263.104C145.291 274.566 133.209 283.121 119.13 287.334L124.482 276.731C117.766 284.407 110.997 292.121 103.043 298.721C95.0881 305.322 85.8007 310.797 75.4534 313.259C74.404 311.854 75.5269 309.974 76.6392 308.607C84.0035 299.554 92.1793 291.089 101.08 283.302C80.5851 294.321 60.0059 305.38 37.9575 313.443C52.1332 295.278 69.1027 279.119 88.3298 265.478L74.8132 268.696C90.7106 251.638 109.87 237.426 131.335 226.769C140.14 237.905 147.16 250.611 153.352 263.104Z" fill="#06B461"/>
<path d="M153.352 263.104C145.291 274.566 133.209 283.121 119.13 287.334L124.482 276.731C117.766 284.407 110.997 292.121 103.043 298.721C95.0881 305.322 85.8007 310.797 75.4534 313.259C74.404 311.854 75.5269 309.974 76.6392 308.607C84.0035 299.554 92.1793 291.089 101.08 283.302C80.5851 294.321 60.0059 305.38 37.9575 313.443C52.1332 295.278 69.1027 279.119 88.3298 265.478L74.8132 268.696C90.7106 251.638 109.87 237.426 131.335 226.769C140.14 237.905 147.16 250.611 153.352 263.104Z" fill="url(#paint16_linear_2_157)"/>
<path d="M110.756 252.675C110.263 253.305 109.77 254.149 110.2 254.817C110.531 255.199 110.994 255.462 111.512 255.564L115.552 256.795C110.348 261.022 105.551 265.659 101.217 270.654C100.493 271.487 99.7896 272.757 100.619 273.503C101.012 273.801 101.506 273.962 102.014 273.959C107.629 274.424 112.865 271.555 117.651 268.803C116.781 271.722 115.274 274.447 113.222 276.808C118.637 275.839 123.538 273.251 127.914 270.237C132.29 267.223 136.414 263.773 140.927 260.855L139.437 264.441C142.199 262.763 144.58 260.603 146.447 258.084C146.897 257.632 147.181 257.061 147.258 256.452C147.335 255.843 147.202 255.226 146.877 254.691C144.626 249.059 141.405 243.8 137.338 239.117C136.639 238.212 135.746 237.45 134.714 236.878C131.419 235.279 124.545 240.483 121.901 242.276C117.618 245.181 113.857 248.691 110.756 252.675Z" fill="#06B461"/>
<path d="M110.756 252.675C110.263 253.305 109.77 254.149 110.2 254.817C110.531 255.199 110.994 255.462 111.512 255.564L115.552 256.795C110.348 261.022 105.551 265.659 101.217 270.654C100.493 271.487 99.7896 272.757 100.619 273.503C101.012 273.801 101.506 273.962 102.014 273.959C107.629 274.424 112.865 271.555 117.651 268.803C116.781 271.722 115.274 274.447 113.222 276.808C118.637 275.839 123.538 273.251 127.914 270.237C132.29 267.223 136.414 263.773 140.927 260.855L139.437 264.441C142.199 262.763 144.58 260.603 146.447 258.084C146.897 257.632 147.181 257.061 147.258 256.452C147.335 255.843 147.202 255.226 146.877 254.691C144.626 249.059 141.405 243.8 137.338 239.117C136.639 238.212 135.746 237.45 134.714 236.878C131.419 235.279 124.545 240.483 121.901 242.276C117.618 245.181 113.857 248.691 110.756 252.675Z" fill="url(#paint17_linear_2_157)"/>
<path d="M260.194 94.0398C259.564 94.2675 258.885 94.357 258.211 94.3014C251.2 94.3014 244.138 94.2045 237.222 93.0706C230.306 91.9366 223.485 89.6688 218.028 85.6079C214.177 82.7003 211.133 79.1047 207.272 76.2747C206.222 75.4702 203.494 74.4623 203.357 72.9988C204.619 72.5474 205.974 72.362 207.324 72.4561C212.949 72.7856 216.769 77.5637 221.092 80.9267C230.369 88.2344 243.319 89.504 255.513 90.3375H255.765C257.309 90.4561 258.807 90.8757 260.162 91.5684C260.582 91.7569 260.909 92.0861 261.075 92.4891C261.144 92.8018 261.094 93.1268 260.934 93.4093C260.773 93.6918 260.512 93.9145 260.194 94.0398Z" fill="url(#paint18_linear_2_157)"/>
<path d="M443.549 74.0746L442.258 80.6844C438.637 92.6752 433.491 104.228 426.926 115.1C412.308 139.843 385.558 172.233 337.043 202.326C260.845 249.681 193.975 257.57 169.303 258.772L160.908 248.004C353.876 195.387 399.463 111.185 404.773 110.487C410.083 109.789 426.055 74.0067 426.055 74.0067L443.549 74.0746Z" fill="url(#paint19_linear_2_157)"/>
</g>
<defs>
<linearGradient id="paint0_linear_2_157" x1="86.5985" y1="204.323" x2="179.2" y2="204.323" gradientUnits="userSpaceOnUse">
<stop stop-opacity="0"/>
<stop offset="0.99"/>
</linearGradient>
<linearGradient id="paint1_linear_2_157" x1="11296.7" y1="19047.7" x2="15438.3" y2="19047.7" gradientUnits="userSpaceOnUse">
<stop stop-opacity="0"/>
<stop offset="0.99"/>
</linearGradient>
<linearGradient id="paint2_linear_2_157" x1="15972" y1="1687.95" x2="15034.3" y2="4600.27" gradientUnits="userSpaceOnUse">
<stop stop-opacity="0"/>
<stop offset="0.99"/>
</linearGradient>
<linearGradient id="paint3_linear_2_157" x1="9646.27" y1="3304.74" x2="10037.3" y2="3951.91" gradientUnits="userSpaceOnUse">
<stop stop-opacity="0"/>
<stop offset="0.99"/>
</linearGradient>
<linearGradient id="paint4_linear_2_157" x1="26247.6" y1="10841.3" x2="38456.8" y2="22653.7" gradientUnits="userSpaceOnUse">
<stop stop-opacity="0"/>
<stop offset="0.99"/>
</linearGradient>
<linearGradient id="paint5_linear_2_157" x1="24191.5" y1="4049.32" x2="25810.1" y2="5855.81" gradientUnits="userSpaceOnUse">
<stop stop-opacity="0"/>
<stop offset="0.99"/>
</linearGradient>
<linearGradient id="paint6_linear_2_157" x1="22947.6" y1="12592" x2="33902.2" y2="12592" gradientUnits="userSpaceOnUse">
<stop stop-opacity="0"/>
<stop offset="0.99"/>
</linearGradient>
<linearGradient id="paint7_linear_2_157" x1="13356.9" y1="8456.48" x2="2017.72" y2="9188.16" gradientUnits="userSpaceOnUse">
<stop stop-opacity="0"/>
<stop offset="0.99"/>
</linearGradient>
<linearGradient id="paint8_linear_2_157" x1="207.104" y1="61.6109" x2="217.556" y2="61.6109" gradientUnits="userSpaceOnUse">
<stop stop-color="#E5C5D5"/>
<stop offset="0.42" stop-color="#EAD4D1"/>
<stop offset="1" stop-color="#F0E9CB"/>
</linearGradient>
<linearGradient id="paint9_linear_2_157" x1="4655.08" y1="1575.06" x2="5057.53" y2="1575.06" gradientUnits="userSpaceOnUse">
<stop stop-color="#E5C5D5"/>
<stop offset="0.42" stop-color="#EAD4D1"/>
<stop offset="1" stop-color="#F0E9CB"/>
</linearGradient>
<linearGradient id="paint10_linear_2_157" x1="9464.73" y1="1125.78" x2="9405.72" y2="2033.24" gradientUnits="userSpaceOnUse">
<stop stop-opacity="0"/>
<stop offset="0.99"/>
</linearGradient>
<linearGradient id="paint11_linear_2_157" x1="5409.94" y1="913.501" x2="5729.31" y2="913.501" gradientUnits="userSpaceOnUse">
<stop stop-color="#E5C5D5"/>
<stop offset="0.42" stop-color="#EAD4D1"/>
<stop offset="1" stop-color="#F0E9CB"/>
</linearGradient>
<linearGradient id="paint12_linear_2_157" x1="-21323.4" y1="-13949" x2="-21050.4" y2="-13790.2" gradientUnits="userSpaceOnUse">
<stop stop-color="#E5C5D5"/>
<stop offset="0.42" stop-color="#EAD4D1"/>
<stop offset="1" stop-color="#F0E9CB"/>
</linearGradient>
<linearGradient id="paint13_linear_2_157" x1="6463.47" y1="2961.42" x2="6269.14" y2="6897.6" gradientUnits="userSpaceOnUse">
<stop stop-opacity="0"/>
<stop offset="0.99"/>
</linearGradient>
<linearGradient id="paint14_linear_2_157" x1="6270.78" y1="707.009" x2="6323.69" y2="815.694" gradientUnits="userSpaceOnUse">
<stop stop-opacity="0"/>
<stop offset="0.99"/>
</linearGradient>
<linearGradient id="paint15_linear_2_157" x1="3406.22" y1="2010.44" x2="3505.39" y2="2010.44" gradientUnits="userSpaceOnUse">
<stop stop-color="#E5C5D5"/>
<stop offset="0.42" stop-color="#EAD4D1"/>
<stop offset="1" stop-color="#F0E9CB"/>
</linearGradient>
<linearGradient id="paint16_linear_2_157" x1="195.371" y1="267.078" x2="34.3387" y2="273.11" gradientUnits="userSpaceOnUse">
<stop offset="0.02" stop-color="white" stop-opacity="0"/>
<stop offset="0.58" stop-color="white" stop-opacity="0.39"/>
<stop offset="0.68" stop-color="white" stop-opacity="0.68"/>
<stop offset="1" stop-color="white"/>
</linearGradient>
<linearGradient id="paint17_linear_2_157" x1="10674.8" y1="9970.18" x2="4584.68" y2="12589.3" gradientUnits="userSpaceOnUse">
<stop offset="0.02" stop-color="white" stop-opacity="0"/>
<stop offset="0.58" stop-color="white" stop-opacity="0.39"/>
<stop offset="0.68" stop-color="white" stop-opacity="0.68"/>
<stop offset="1" stop-color="white"/>
</linearGradient>
<linearGradient id="paint18_linear_2_157" x1="14495.5" y1="1802.02" x2="14220.1" y2="3536.73" gradientUnits="userSpaceOnUse">
<stop offset="0.02" stop-color="white" stop-opacity="0"/>
<stop offset="0.58" stop-color="white" stop-opacity="0.39"/>
<stop offset="0.68" stop-color="white" stop-opacity="0.68"/>
<stop offset="1" stop-color="white"/>
</linearGradient>
<linearGradient id="paint19_linear_2_157" x1="86321.2" y1="28991.6" x2="88795.7" y2="56569.7" gradientUnits="userSpaceOnUse">
<stop stop-opacity="0"/>
<stop offset="0.99"/>
</linearGradient>
<clipPath id="clip0_2_157">
<rect width="482" height="356" fill="white"/>
</clipPath>
</defs>
</svg>
