<svg width="736" height="656" viewBox="0 0 736 656" fill="none" xmlns="http://www.w3.org/2000/svg">
<g clip-path="url(#clip0_2_198)">
<path opacity="0.18" d="M615.456 427.685C614.245 445.576 622.677 462.989 623.023 480.908C623.586 506.671 605.856 532.042 579.531 543.168C534.494 562.203 426.926 555.018 405.996 559.913C341.834 574.922 238.19 563.215 172.958 564.684C158.266 565.018 148.752 566.421 141.368 564.531C133.995 562.623 128.741 557.461 122.579 544.637C111.52 521.556 111.606 491.271 116.222 467.083C119.001 452.541 123.682 436.483 114.904 423.935C108.99 415.5 98.3197 410.844 88.9576 405.348C55.444 385.702 35.1304 351.104 30.5034 315.762C25.8764 280.419 35.6494 244.505 52.5575 212.216C58.4926 200.909 65.3899 189.822 75.0116 180.728C90.6116 165.939 112.093 157.371 131.639 146.875C157.248 133.116 180.071 115.675 199.163 95.2735C214.374 79.0528 227.271 60.8568 245.023 46.7734C297.855 4.9333 383.877 10.3816 442.612 45.5616C480.969 68.5092 511.11 102.315 553.283 119.261C597.975 137.276 654.31 135.768 688.851 166.616C706.548 182.408 715.359 204.583 718.202 226.643C723.13 266.814 710.127 307.1 681.953 338.948C656.537 367.353 617.91 391.532 615.456 427.685Z" fill="#06B461"/>
<g clip-path="url(#clip1_2_198)">
<path d="M676.363 138.093V477.318C676.365 484.116 673.454 490.636 668.268 495.446C663.082 500.256 656.045 502.963 648.705 502.971H96.8919C89.5482 502.971 82.5051 500.269 77.3123 495.46C72.1195 490.651 69.2021 484.129 69.2021 477.328V477.328V138.093C69.2194 131.3 72.1437 124.792 77.334 119.993C82.5244 115.193 89.5575 112.496 96.8919 112.49H648.705C656.034 112.504 663.059 115.205 668.242 120.003C673.426 124.801 676.345 131.306 676.363 138.093Z" fill="#06B461"/>
<path d="M718.845 168.192V507.418C718.848 514.215 715.936 520.735 710.75 525.545C705.564 530.356 698.528 533.062 691.188 533.07H139.374C132.031 533.07 124.988 530.369 119.795 525.56C114.602 520.751 111.685 514.228 111.685 507.428V507.428V168.192C111.702 161.4 114.626 154.891 119.816 150.092C125.007 145.293 132.04 142.595 139.374 142.59H691.188C698.517 142.603 705.541 145.304 710.725 150.103C715.908 154.901 718.828 161.405 718.845 168.192Z" fill="url(#paint0_linear_2_198)"/>
<path d="M678.182 137.99V143.034H71.0105V137.99C71.0105 131.185 73.9286 124.659 79.1232 119.847C84.3178 115.034 91.3635 112.33 98.7112 112.327H650.481C657.827 112.33 664.871 115.033 670.065 119.843C675.259 124.654 678.179 131.177 678.182 137.98V137.99Z" fill="#06B461"/>
<path d="M678.182 137.99V143.034H71.0105V137.99C71.0105 131.185 73.9286 124.659 79.1232 119.847C84.3178 115.034 91.3635 112.33 98.7112 112.327H650.481C657.827 112.33 664.871 115.033 670.065 119.843C675.259 124.654 678.179 131.177 678.182 137.98V137.99Z" fill="#06B461"/>
<path d="M678.182 137.99V143.034H71.0105V137.99C71.0105 131.185 73.9286 124.659 79.1232 119.847C84.3178 115.034 91.3635 112.33 98.7112 112.327H650.481C657.827 112.33 664.871 115.033 670.065 119.843C675.259 124.654 678.179 131.177 678.182 137.98V137.99Z" fill="url(#paint1_linear_2_198)"/>
<path d="M102.502 127.7C102.502 128.498 102.246 129.279 101.767 129.942C101.289 130.606 100.608 131.123 99.8119 131.428C99.0158 131.734 98.1397 131.814 97.2945 131.658C96.4493 131.502 95.6729 131.118 95.0635 130.554C94.4542 129.989 94.0392 129.27 93.8711 128.488C93.703 127.705 93.7892 126.894 94.119 126.156C94.4488 125.419 95.0073 124.789 95.7238 124.345C96.4403 123.902 97.2828 123.665 98.1445 123.665C99.3001 123.665 100.408 124.09 101.226 124.847C102.043 125.604 102.502 126.63 102.502 127.7Z" fill="url(#paint2_linear_2_198)"/>
<path d="M122.817 127.7C122.817 128.498 122.562 129.279 122.083 129.942C121.604 130.606 120.924 131.123 120.127 131.428C119.331 131.734 118.455 131.814 117.61 131.658C116.765 131.502 115.988 131.118 115.379 130.554C114.77 129.989 114.355 129.27 114.187 128.488C114.018 127.705 114.105 126.894 114.434 126.156C114.764 125.419 115.323 124.789 116.039 124.345C116.756 123.902 117.598 123.665 118.46 123.665C119.616 123.665 120.724 124.09 121.541 124.847C122.358 125.604 122.817 126.63 122.817 127.7Z" fill="url(#paint3_linear_2_198)"/>
<path d="M138.753 131.735C141.166 131.735 143.121 129.924 143.121 127.69C143.121 125.456 141.166 123.645 138.753 123.645C136.341 123.645 134.385 125.456 134.385 127.69C134.385 129.924 136.341 131.735 138.753 131.735Z" fill="url(#paint4_linear_2_198)"/>
<path d="M202.172 143.064V502.878H98.6892C91.3444 502.878 84.3003 500.177 79.1057 495.368C73.9111 490.56 70.9914 484.037 70.9885 477.235V143.064H202.172Z" fill="#06B461"/>
<path d="M184.667 200.835H89.6372C88.8667 200.833 88.1286 200.548 87.5838 200.044C87.039 199.539 86.7316 198.856 86.7288 198.142C86.7273 197.79 86.8009 197.44 86.9452 197.114C87.0895 196.788 87.3017 196.492 87.5697 196.242C87.8378 195.992 88.1564 195.793 88.5074 195.657C88.8584 195.521 89.2349 195.45 89.6154 195.449H184.667C185.437 195.451 186.176 195.736 186.72 196.24C187.265 196.745 187.573 197.429 187.575 198.142C187.573 198.856 187.265 199.539 186.72 200.044C186.176 200.548 185.437 200.833 184.667 200.835Z" fill="url(#paint5_linear_2_198)"/>
<path d="M184.667 250.587H89.6372C88.8667 250.585 88.1286 250.3 87.5838 249.796C87.039 249.291 86.7316 248.608 86.7288 247.894C86.7287 247.181 87.0333 246.496 87.5761 245.989C88.1189 245.483 88.8558 245.196 89.6263 245.191H184.667C185.439 245.193 186.179 245.479 186.724 245.986C187.269 246.493 187.575 247.179 187.575 247.894C187.57 248.607 187.261 249.289 186.717 249.793C186.173 250.297 185.437 250.582 184.667 250.587Z" fill="url(#paint6_linear_2_198)"/>
<path d="M184.667 300.35H89.6372C88.8668 300.347 88.1287 300.062 87.5839 299.558C87.0391 299.053 86.7317 298.37 86.7288 297.656C86.7231 297.299 86.794 296.943 86.9374 296.611C87.0809 296.279 87.294 295.977 87.5645 295.722C87.835 295.467 88.1575 295.264 88.5133 295.125C88.8691 294.986 89.2511 294.914 89.6372 294.912H184.667C185.437 294.918 186.173 295.203 186.717 295.707C187.262 296.211 187.57 296.893 187.575 297.606C187.581 297.963 187.51 298.318 187.367 298.65C187.223 298.982 187.01 299.285 186.74 299.54C186.469 299.795 186.147 299.998 185.791 300.137C185.435 300.276 185.053 300.348 184.667 300.35Z" fill="url(#paint7_linear_2_198)"/>
<path d="M184.667 350.102H89.6372C89.2567 350.103 88.8796 350.035 88.5275 349.901C88.1754 349.768 87.8552 349.571 87.5851 349.323C87.3151 349.075 87.1004 348.779 86.9535 348.454C86.8066 348.129 86.7302 347.781 86.7288 347.428C86.7273 347.076 86.8009 346.727 86.9452 346.401C87.0895 346.075 87.3017 345.778 87.5697 345.528C87.8378 345.278 88.1564 345.079 88.5074 344.943C88.8584 344.807 89.2349 344.736 89.6154 344.735H184.667C185.432 344.729 186.169 345.002 186.719 345.495C187.269 345.987 187.588 346.66 187.608 347.368C187.612 347.727 187.539 348.084 187.393 348.416C187.247 348.749 187.031 349.052 186.757 349.306C186.483 349.561 186.157 349.762 185.798 349.899C185.44 350.035 185.055 350.104 184.667 350.102Z" fill="url(#paint8_linear_2_198)"/>
<path d="M678.182 143.064V477.215C678.184 480.583 677.471 483.918 676.082 487.03C674.693 490.142 672.656 492.97 670.087 495.353C667.518 497.736 664.467 499.627 661.108 500.919C657.75 502.21 654.15 502.876 650.514 502.878H558.599V143.064H678.182Z" fill="#06B461"/>
<path d="M678.182 237.968H558.599V387.506H678.182V237.968Z" fill="url(#paint9_linear_2_198)"/>
<path d="M360.497 534.925C359.264 535.73 358.233 536.757 357.47 537.939C357.096 538.532 356.93 539.212 356.993 539.891C357.057 540.569 357.347 541.215 357.827 541.745C358.952 542.782 360.789 542.766 362.399 542.619C368.461 542.066 374.408 540.769 380.073 538.764C381.774 538.159 383.584 537.391 384.425 535.929C384.869 535.006 385.093 534.01 385.084 533.005L385.394 528.505C385.468 527.451 385.312 526.096 384.178 525.802C383.879 525.739 383.569 525.725 383.264 525.761C379.607 525.94 374.285 525.279 371.067 526.961C367.236 528.979 363.99 532.425 360.497 534.925Z" fill="#06B461"/>
<path d="M426.357 538.167C427.457 539.113 428.328 540.25 428.917 541.508C429.198 542.141 429.26 542.834 429.098 543.499C428.935 544.163 428.554 544.77 428.003 545.24C426.732 546.139 424.912 545.902 423.349 545.567C417.423 544.304 411.721 542.314 406.406 539.654C404.806 538.837 403.124 537.881 402.511 536.338C402.21 535.368 402.135 534.353 402.292 533.356L402.648 528.856C402.73 527.802 403.087 526.479 404.248 526.324C404.554 526.295 404.864 526.315 405.163 526.381C408.729 526.994 414.132 526.969 417.049 529.019C420.551 531.478 423.267 535.276 426.357 538.167Z" fill="#06B461"/>
<path d="M360.497 534.925C359.264 535.73 358.233 536.757 357.47 537.939C357.096 538.532 356.93 539.212 356.993 539.891C357.057 540.569 357.347 541.215 357.827 541.745C358.952 542.782 360.789 542.766 362.399 542.619C368.461 542.066 374.408 540.769 380.073 538.764C381.774 538.159 383.584 537.391 384.425 535.929C384.869 535.006 385.093 534.01 385.084 533.005L385.394 528.505C385.468 527.451 385.312 526.096 384.178 525.802C383.879 525.739 383.569 525.725 383.264 525.761C379.607 525.94 374.285 525.279 371.067 526.961C367.236 528.979 363.99 532.425 360.497 534.925Z" fill="url(#paint10_linear_2_198)"/>
<path d="M426.357 538.167C427.457 539.113 428.328 540.25 428.917 541.508C429.198 542.141 429.26 542.834 429.098 543.499C428.935 544.163 428.554 544.77 428.003 545.24C426.732 546.139 424.912 545.902 423.349 545.567C417.423 544.304 411.721 542.314 406.406 539.654C404.806 538.837 403.124 537.881 402.511 536.338C402.21 535.368 402.135 534.353 402.292 533.356L402.648 528.856C402.73 527.802 403.087 526.479 404.248 526.324C404.554 526.295 404.864 526.315 405.163 526.381C408.729 526.994 414.132 526.969 417.049 529.019C420.551 531.478 423.267 535.276 426.357 538.167Z" fill="url(#paint11_linear_2_198)"/>
<path d="M366.687 390.546L368.963 444.215L371.249 526.422C371.249 526.422 375.272 529.019 385.138 526.847L394.062 442.173L398.634 404.129L410.036 445.571L403.956 527.067C403.956 527.067 409.277 531.151 418.402 531.151L435.135 445.547L422.965 383.073L366.687 390.546Z" fill="#606161"/>
<path d="M366.687 390.546L368.963 444.215L371.249 526.422C371.249 526.422 375.245 527.525 385.138 526.847L394.062 442.173L398.634 404.129L410.036 445.571L403.956 527.067C403.956 527.067 409.277 531.151 418.402 531.151L435.135 445.547L422.965 383.073L366.687 390.546Z" fill="url(#paint12_linear_2_198)"/>
<path d="M370.491 292.706C370.491 292.706 355.459 300.057 353.758 301.544C352.231 302.899 365.16 386.487 365.928 390.57C366.696 394.654 391.786 393.282 402.429 390.57C409.522 388.661 416.397 386.158 422.965 383.097C422.965 383.097 417.644 296.128 415.367 294.773C413.09 293.417 391.786 289.333 391.786 289.333L370.491 292.706Z" fill="#06B461"/>
<path d="M415.367 294.748C415.367 294.748 419.938 296.104 422.206 298.832C424.474 301.56 442.742 334.157 440.493 340.952C438.244 347.748 430.6 349.79 428.323 348.426C426.046 347.062 421.447 337.579 420.734 334.835C420.021 332.09 418.503 323.163 418.503 323.163L415.367 294.748Z" fill="#06B461"/>
<path d="M437.869 353.784C439.001 353.907 440.15 353.793 441.224 353.449C442.366 352.972 443.398 352.31 444.269 351.497C446.092 350.086 447.755 348.518 449.234 346.817C450.445 345.263 451.46 343.595 452.261 341.843C454.963 336.261 456.672 330.336 457.326 324.282C457.61 321.726 457.674 319.047 456.458 316.727C456.301 316.378 456.05 316.069 455.726 315.829C455.455 315.681 455.152 315.586 454.837 315.55C454.522 315.513 454.202 315.536 453.897 315.616C450.752 316.188 448.942 319.055 447.36 321.554C444.338 326.319 440.698 330.749 436.516 334.753C434.409 336.615 432.442 338.598 430.627 340.691C428.698 343.141 426.476 346.621 428.799 349.283C429.886 350.547 431.252 351.598 432.812 352.372C434.372 353.146 436.093 353.626 437.869 353.784Z" fill="#06B461"/>
<path d="M437.869 353.784C439.001 353.907 440.15 353.793 441.224 353.449C442.366 352.972 443.398 352.31 444.269 351.497C446.092 350.086 447.755 348.518 449.234 346.817C450.445 345.263 451.46 343.595 452.261 341.843C454.963 336.261 456.672 330.336 457.326 324.282C457.61 321.726 457.674 319.047 456.458 316.727C456.301 316.378 456.05 316.069 455.726 315.829C455.455 315.681 455.152 315.586 454.837 315.55C454.522 315.513 454.202 315.536 453.897 315.616C450.752 316.188 448.942 319.055 447.36 321.554C444.338 326.319 440.698 330.749 436.516 334.753C434.409 336.615 432.442 338.598 430.627 340.691C428.698 343.141 426.476 346.621 428.799 349.283C429.886 350.547 431.252 351.598 432.812 352.372C434.372 353.146 436.093 353.626 437.869 353.784Z" fill="url(#paint13_linear_2_198)"/>
<path d="M354.471 301.029C354.471 301.029 343.865 305.619 341.588 312.415C339.311 319.21 323.301 353.171 328.659 357.933C329.116 358.341 329.802 359.011 330.634 359.828C331.753 360.937 333.185 361.757 334.78 362.205C336.374 362.652 338.074 362.709 339.702 362.371C341.33 362.032 342.827 361.31 344.036 360.28C345.246 359.249 346.124 357.948 346.58 356.512L356.373 325.712C356.373 325.712 358.988 305.954 354.471 301.029Z" fill="#06B461"/>
<path d="M342.905 359.501C342.715 359.94 342.372 360.312 341.926 360.563C341.302 360.988 340.62 361.342 339.896 361.616V361.657C337.71 362.599 335.264 362.954 332.856 362.678C328.156 362.115 323.786 357.533 320.814 353.253C320.311 352.526 320.348 350.86 320.009 350.067C319.734 349.377 319.646 348.638 319.753 347.911C319.973 343.705 319.543 336.999 319.973 332.491C319.976 332.163 320.004 331.835 320.055 331.511C320.137 330.865 320.348 330.106 320.969 329.991C321.389 329.947 321.813 330.043 322.158 330.261C326.648 332.605 331.649 343.435 334.456 347.413C336.998 350.941 341.487 354.192 342.85 358.251C343.017 358.652 343.036 359.09 342.905 359.501Z" fill="#06B461"/>
<path d="M340.024 361.314C339.979 361.428 339.933 361.543 339.896 361.616V361.657C337.71 362.599 335.264 362.954 332.856 362.678C328.156 362.115 323.786 357.533 320.814 353.253C320.311 352.526 320.348 350.86 320.009 350.067C319.734 349.377 319.646 348.638 319.753 347.911C319.973 343.705 319.543 336.999 319.973 332.491C324.298 335.488 328.915 345.444 331.585 349.234C334.127 352.754 338.625 356.013 339.979 360.065C340.137 360.467 340.153 360.903 340.024 361.314Z" fill="url(#paint14_linear_2_198)"/>
<path d="M368.963 284.555C368.963 284.555 371.249 293.384 370.49 296.806C369.731 300.229 375.812 309.719 383.419 309.719C391.027 309.719 391.027 298.17 391.027 296.806C391.027 295.442 387.826 292.592 388.585 289.194C389.344 285.796 369.731 280.479 368.963 284.555Z" fill="#F5E0CD"/>
<path d="M373.188 295.042C373.931 296.016 374.834 296.883 375.867 297.615C377.685 298.787 379.88 299.397 382.121 299.355C383.753 299.421 385.35 298.917 386.574 297.95C387.33 297.119 387.772 296.095 387.836 295.026C388.119 293.243 388.266 291.444 388.275 289.643C388.275 288.827 388.092 287.749 387.022 287.43C386.448 287.308 385.85 287.308 385.276 287.43C381.857 287.919 378.389 288.067 374.934 287.871C372.557 287.732 369.375 287.12 369.933 289.431C370.586 291.478 371.692 293.386 373.188 295.042Z" fill="url(#paint15_linear_2_198)"/>
<path d="M370.637 295.516C370.637 295.516 376.763 308.331 381.993 309.695C381.993 309.695 383.419 310.373 379.616 312.415C375.812 314.457 365.16 304.247 366.687 296.782C366.847 295.829 367.28 294.93 367.943 294.17C368.606 293.41 369.477 292.816 370.472 292.445L370.637 295.516Z" fill="white"/>
<path d="M388.357 290.566C388.357 290.566 391.191 302.132 386.921 308.633C386.921 308.633 388.75 311.083 390.268 311.083C391.785 311.083 395.589 302.916 394.062 296.815C393.175 293.213 389.116 289.594 388.357 290.566Z" fill="white"/>
<path d="M390.935 263.515C390.935 263.515 392.453 281.182 390.935 285.943C389.417 290.705 384.846 294.773 380.283 294.773C375.721 294.773 368.872 291.375 365.837 285.257C362.801 279.14 361.265 264.201 362.033 262.159C362.801 260.118 367.382 253.698 379.524 254.686C387.891 255.364 390.935 260.804 390.935 263.515Z" fill="#F5E0CD"/>
<path d="M394.007 274.313C393.912 274.795 393.756 275.267 393.541 275.718C393.424 276.073 393.228 276.403 392.965 276.69C392.577 277.013 392.101 277.241 391.584 277.351C391.373 277.429 391.142 277.452 390.917 277.417C389.427 277.049 389.609 273.717 390.359 272.81C390.771 272.32 392.261 271.258 392.919 271.446C393.898 271.716 394.126 273.61 394.007 274.313Z" fill="#F5E0CD"/>
<path d="M362.819 276.036C362.625 275.868 362.38 275.754 362.115 275.709C361.914 275.702 361.716 275.751 361.548 275.848C361.298 276 361.09 276.201 360.941 276.436C360.792 276.672 360.705 276.934 360.689 277.204C360.649 277.757 360.73 278.312 360.926 278.838C361.292 280.014 361.886 281.288 363.121 281.811C363.257 281.888 363.416 281.93 363.578 281.93C363.74 281.93 363.899 281.888 364.035 281.811C364.16 281.704 364.249 281.568 364.291 281.419C364.76 280.461 365.003 279.426 365.004 278.38C364.858 277.441 363.605 276.616 362.819 276.036Z" fill="#F5E0CD"/>
<path d="M448.164 212.509H320.393C317.94 212.513 315.589 213.387 313.856 214.938C312.123 216.489 311.149 218.591 311.149 220.782V431.727C311.148 432.812 311.387 433.886 311.851 434.888C312.315 435.891 312.996 436.801 313.854 437.568C314.713 438.335 315.732 438.943 316.855 439.358C317.977 439.773 319.179 439.986 320.393 439.984H448.164C449.382 439.989 450.588 439.778 451.714 439.365C452.841 438.952 453.865 438.345 454.728 437.578C455.591 436.811 456.276 435.899 456.744 434.895C457.211 433.891 457.453 432.814 457.454 431.727V220.782C457.453 219.694 457.212 218.617 456.744 217.612C456.276 216.607 455.591 215.694 454.729 214.926C453.866 214.157 452.842 213.548 451.716 213.134C450.589 212.719 449.383 212.506 448.164 212.509ZM444.607 414.42H322.259V221.934H444.626L444.607 414.42Z" fill="#06B461"/>
<path d="M389.856 434.136C394.719 434.136 398.662 430.615 398.662 426.271C398.662 421.927 394.719 418.406 389.856 418.406C384.993 418.406 381.051 421.927 381.051 426.271C381.051 430.615 384.993 434.136 389.856 434.136Z" fill="url(#paint16_linear_2_198)"/>
<path d="M311.012 311.794C314.461 311.634 317.918 311.945 321.262 312.717C321.938 312.843 322.582 313.079 323.164 313.411C323.452 313.578 323.693 313.803 323.866 314.069C324.039 314.334 324.14 314.632 324.16 314.938C324.16 315.837 323.292 316.507 322.496 317.046C323.222 317.494 323.81 318.098 324.206 318.802C324.381 319.159 324.407 319.56 324.28 319.933C324.152 320.306 323.88 320.626 323.511 320.836C323.292 320.925 323.008 320.991 322.944 321.195C322.88 321.399 323.082 321.587 323.237 321.742C323.527 322.022 323.73 322.364 323.824 322.736C323.918 323.108 323.901 323.495 323.774 323.859C323.647 324.223 323.414 324.55 323.1 324.808C322.786 325.066 322.401 325.245 321.984 325.328C322.155 325.34 322.321 325.384 322.471 325.457C322.622 325.531 322.753 325.632 322.856 325.754C322.96 325.875 323.034 326.015 323.072 326.164C323.111 326.313 323.114 326.468 323.082 326.618C322.992 326.918 322.814 327.191 322.566 327.41C322.319 327.628 322.011 327.783 321.673 327.86C320.998 328.011 320.298 328.052 319.607 327.982C317.211 327.868 314.724 327.802 312.493 328.603C311.713 328.995 310.837 329.211 309.942 329.232C309.533 329.169 309.145 329.021 308.812 328.8C308.478 328.579 308.208 328.29 308.022 327.958C307.661 327.286 307.465 326.554 307.446 325.81C307.245 322.69 308.361 319.545 307.785 316.458C307.291 313.893 307.51 311.949 311.012 311.794Z" fill="#F5E0CD"/>
<path d="M449.719 302.458C447.762 302.728 445.705 303.022 444.123 304.092C442.541 305.162 441.654 307.269 442.724 308.756C443.053 309.213 443.556 309.621 443.593 310.16C443.568 310.575 443.427 310.976 443.181 311.328C442.761 312.162 442.593 313.079 442.692 313.989C442.792 314.899 443.156 315.77 443.748 316.515C443.09 318.238 442.678 320.435 444.205 321.636C445.531 322.673 447.561 322.347 449.271 321.963L453.842 320.934C454.815 320.811 455.714 320.399 456.393 319.766C456.682 319.376 456.884 318.941 456.988 318.483C458.259 314.277 459.027 309.434 458.295 305.08C457.564 300.727 453.65 301.911 449.719 302.458Z" fill="#F5E0CD"/>
<path d="M365.974 248.716C369.247 246.11 373.288 244.207 375.785 240.973L376.187 244.501L380.676 241.234C380.498 242.061 380.609 242.917 380.996 243.684C381.54 242.817 382.349 242.106 383.328 241.634C383.283 242.648 383.492 243.659 383.941 244.591C385.064 243.613 386.05 242.516 386.876 241.324C386.713 241.824 386.662 242.347 386.727 242.864C386.791 243.381 386.969 243.882 387.25 244.338C387.723 244.121 388.137 243.816 388.464 243.442C388.791 243.068 389.023 242.635 389.143 242.173C390.341 245.996 392.737 249.467 393.715 253.338C394.51 256.458 394.346 259.709 394.181 262.911C394.002 266.323 393.018 269.663 391.292 272.712C390.25 269.674 389.783 267.346 388.384 264.422C387.789 262.909 386.856 261.519 385.641 260.338C382.898 257.978 378.537 258.043 374.669 258.321C371.149 258.574 367.281 259.039 364.968 261.416C363.075 263.368 362.719 266.153 362.901 268.726C363.084 271.299 363.724 273.864 363.468 276.436C360.981 273.823 358.567 270.98 357.763 267.632C357.342 265.939 357.452 264.175 358.083 262.535C358.759 260.853 360.68 260.003 361.347 258.566C362.014 257.128 361.347 255.258 361.941 253.665C362.813 251.746 364.197 250.047 365.974 248.716Z" fill="#606161"/>
<path d="M365.974 248.716C369.247 246.11 373.288 244.207 375.785 240.973L376.187 244.501L380.676 241.234C380.498 242.061 380.609 242.917 380.996 243.684C381.54 242.817 382.349 242.106 383.328 241.634C383.283 242.648 383.492 243.659 383.941 244.591C385.064 243.613 386.05 242.516 386.876 241.324C386.713 241.824 386.662 242.347 386.727 242.864C386.791 243.381 386.969 243.882 387.25 244.338C387.723 244.121 388.137 243.816 388.464 243.442C388.791 243.068 389.023 242.635 389.143 242.173C390.341 245.996 392.737 249.467 393.715 253.338C394.51 256.458 394.346 259.709 394.181 262.911C394.002 266.323 393.018 269.663 391.292 272.712C390.25 269.674 389.783 267.346 388.384 264.422C387.789 262.909 386.856 261.519 385.641 260.338C382.898 257.978 378.537 258.043 374.669 258.321C371.149 258.574 367.281 259.039 364.968 261.416C363.075 263.368 362.719 266.153 362.901 268.726C363.084 271.299 363.724 273.864 363.468 276.436C360.981 273.823 358.567 270.98 357.763 267.632C357.342 265.939 357.452 264.175 358.083 262.535C358.759 260.853 360.68 260.003 361.347 258.566C362.014 257.128 361.347 255.258 361.941 253.665C362.813 251.746 364.197 250.047 365.974 248.716Z" fill="url(#paint17_linear_2_198)"/>
<path d="M475.247 235.598H446.747C439.283 235.598 433.233 241.003 433.233 247.67V260.934C433.233 267.601 439.283 273.006 446.747 273.006H475.247C482.711 273.006 488.761 267.601 488.761 260.934V247.67C488.761 241.003 482.711 235.598 475.247 235.598Z" fill="#06B461"/>
<path d="M475.247 235.598H446.747C439.283 235.598 433.233 241.003 433.233 247.67V260.934C433.233 267.601 439.283 273.006 446.747 273.006H475.247C482.711 273.006 488.761 267.601 488.761 260.934V247.67C488.761 241.003 482.711 235.598 475.247 235.598Z" fill="url(#paint18_linear_2_198)"/>
<path d="M455.991 245.767L471.242 254.302L455.991 262.641V245.767Z" fill="#06B461"/>
<path d="M541.272 311.892V332.254C541.272 334.513 540.268 336.68 538.479 338.278C536.691 339.875 534.265 340.773 531.736 340.773H530.017V349.757L524.814 340.773H485.241C483.988 340.774 482.748 340.554 481.59 340.126C480.432 339.699 479.381 339.071 478.495 338.28C477.609 337.489 476.907 336.549 476.428 335.515C475.949 334.481 475.703 333.373 475.704 332.254V311.892C475.703 310.773 475.949 309.665 476.428 308.631C476.907 307.597 477.609 306.657 478.495 305.866C479.381 305.075 480.432 304.447 481.59 304.019C482.748 303.592 483.988 303.372 485.241 303.373H531.736C532.988 303.372 534.229 303.592 535.387 304.019C536.544 304.447 537.596 305.075 538.482 305.866C539.368 306.657 540.07 307.597 540.549 308.631C541.028 309.665 541.273 310.773 541.272 311.892Z" fill="#06B461"/>
<path d="M541.272 311.892V332.254C541.272 334.513 540.268 336.68 538.479 338.278C536.691 339.875 534.265 340.773 531.736 340.773H530.017V349.757L524.814 340.773H485.241C483.988 340.774 482.748 340.554 481.59 340.126C480.432 339.699 479.381 339.071 478.495 338.28C477.609 337.489 476.907 336.549 476.428 335.515C475.949 334.481 475.703 333.373 475.704 332.254V311.892C475.703 310.773 475.949 309.665 476.428 308.631C476.907 307.597 477.609 306.657 478.495 305.866C479.381 305.075 480.432 304.447 481.59 304.019C482.748 303.592 483.988 303.372 485.241 303.373H531.736C532.988 303.372 534.229 303.592 535.387 304.019C536.544 304.447 537.596 305.075 538.482 305.866C539.368 306.657 540.07 307.597 540.549 308.631C541.028 309.665 541.273 310.773 541.272 311.892Z" fill="url(#paint19_linear_2_198)"/>
<path d="M532.814 310.765H483.961V313.207H532.814V310.765Z" fill="#06B461"/>
<path d="M532.814 317.209H483.961V319.651H532.814V317.209Z" fill="#06B461"/>
<path d="M532.814 323.645H483.961V326.087H532.814V323.645Z" fill="#06B461"/>
<path d="M283.326 373.288C283.326 385.425 269.199 395.242 251.772 395.242C248.846 395.25 245.928 394.959 243.076 394.377L229.306 400.674L234.792 391.771C226.005 387.908 220.163 381.088 220.163 373.288C220.163 361.159 234.289 351.341 251.717 351.341C269.144 351.341 283.326 361.159 283.326 373.288Z" fill="#06B461"/>
<path d="M283.326 373.288C283.326 385.425 269.199 395.242 251.772 395.242C248.846 395.25 245.928 394.959 243.076 394.377L229.306 400.674L234.792 391.771C226.005 387.908 220.163 381.088 220.163 373.288C220.163 361.159 234.289 351.341 251.717 351.341C269.144 351.341 283.326 361.159 283.326 373.288Z" fill="url(#paint20_linear_2_198)"/>
<path d="M492.4 374.243C492.4 374.243 485.086 365.708 478.292 373.835C471.498 381.962 493.763 391.73 493.763 391.73C493.763 391.73 509.7 381.562 507.88 375.46C506.061 369.359 496.04 367.742 492.4 374.243Z" fill="#06B461"/>
<path d="M249.038 291.301C249.038 291.301 241.723 282.766 234.929 290.893C228.136 299.02 250.409 308.788 250.409 308.788C250.409 308.788 266.337 298.62 264.518 292.518C262.698 286.417 252.686 284.8 249.038 291.301Z" fill="#06B461"/>
<path d="M249.038 291.301C249.038 291.301 241.723 282.766 234.929 290.893C228.136 299.02 250.409 308.788 250.409 308.788C250.409 308.788 266.337 298.62 264.518 292.518C262.698 286.417 252.686 284.8 249.038 291.301Z" fill="url(#paint21_linear_2_198)"/>
<path d="M288.94 232.348H267.114C262.08 232.348 257.998 235.993 257.998 240.491V255.919C257.998 260.417 262.08 264.062 267.114 264.062H288.94C293.974 264.062 298.056 260.417 298.056 255.919V240.491C298.056 235.993 293.974 232.348 288.94 232.348Z" fill="#06B461"/>
<path d="M284.88 238.179H271.467C268.72 238.179 266.493 240.169 266.493 242.623V254.604C266.493 257.058 268.72 259.048 271.467 259.048H284.88C287.627 259.048 289.854 257.058 289.854 254.604V242.623C289.854 240.169 287.627 238.179 284.88 238.179Z" stroke="white" stroke-width="1.77" stroke-miterlimit="10"/>
<path d="M278.242 251.256C280.595 251.256 282.503 249.552 282.503 247.45C282.503 245.348 280.595 243.643 278.242 243.643C275.889 243.643 273.981 245.348 273.981 247.45C273.981 249.552 275.889 251.256 278.242 251.256Z" stroke="white" stroke-width="1.77" stroke-miterlimit="10"/>
<path d="M284.77 243.791C285.553 243.791 286.188 243.224 286.188 242.525C286.188 241.825 285.553 241.259 284.77 241.259C283.988 241.259 283.353 241.825 283.353 242.525C283.353 243.224 283.988 243.791 284.77 243.791Z" stroke="white" stroke-width="0.88" stroke-miterlimit="10"/>
<path d="M343.819 191.485C343.819 191.485 351.883 204.137 365.059 202.667C378.235 201.196 379.222 191.485 379.222 191.485H383.995L380.045 188.692C380.045 188.692 378.729 184.428 375.108 185.425C371.487 186.421 366.54 190.57 366.54 190.57L351.911 178.809C351.394 179.654 351.152 180.61 351.21 181.571C351.268 182.531 351.625 183.459 352.24 184.249C352.24 184.249 350.265 186.748 352.405 188.218C352.405 188.218 352.405 190.717 354.544 191.747C354.517 191.779 349.25 195.61 343.819 191.485Z" fill="#06B461"/>
</g>
</g>
<defs>
<linearGradient id="paint0_linear_2_198" x1="404.53" y1="589.894" x2="419.312" y2="185.14" gradientUnits="userSpaceOnUse">
<stop stop-color="white" stop-opacity="0"/>
<stop offset="1" stop-color="white"/>
</linearGradient>
<linearGradient id="paint1_linear_2_198" x1="367.418" y1="121.991" x2="402.946" y2="214.063" gradientUnits="userSpaceOnUse">
<stop stop-color="white" stop-opacity="0"/>
<stop offset="1" stop-color="white"/>
</linearGradient>
<linearGradient id="paint2_linear_2_198" x1="98.5802" y1="113.558" x2="98.1692" y2="129.296" gradientUnits="userSpaceOnUse">
<stop stop-color="#A8EEFD"/>
<stop offset="1" stop-color="#E7FAFF"/>
</linearGradient>
<linearGradient id="paint3_linear_2_198" x1="1465.09" y1="4952.88" x2="1461.8" y2="4826.97" gradientUnits="userSpaceOnUse">
<stop stop-color="#A8EEFD"/>
<stop offset="1" stop-color="#E7FAFF"/>
</linearGradient>
<linearGradient id="paint4_linear_2_198" x1="695.419" y1="-4129.44" x2="692.122" y2="-4003.22" gradientUnits="userSpaceOnUse">
<stop stop-color="#A8EEFD"/>
<stop offset="1" stop-color="#E7FAFF"/>
</linearGradient>
<linearGradient id="paint5_linear_2_198" x1="236.975" y1="183.233" x2="177.044" y2="193.669" gradientUnits="userSpaceOnUse">
<stop stop-color="#68E1FD"/>
<stop offset="0.08" stop-color="#84E6FD"/>
<stop offset="0.21" stop-color="#A9EEFE"/>
<stop offset="0.35" stop-color="#C8F4FE"/>
<stop offset="0.49" stop-color="#E0F9FF"/>
<stop offset="0.64" stop-color="#F2FCFF"/>
<stop offset="0.8" stop-color="#FCFEFF"/>
<stop offset="1" stop-color="white"/>
</linearGradient>
<linearGradient id="paint6_linear_2_198" x1="27437.3" y1="2845.39" x2="26870" y2="1135.99" gradientUnits="userSpaceOnUse">
<stop stop-color="#68E1FD"/>
<stop offset="0.08" stop-color="#84E6FD"/>
<stop offset="0.21" stop-color="#A9EEFE"/>
<stop offset="0.35" stop-color="#C8F4FE"/>
<stop offset="0.49" stop-color="#E0F9FF"/>
<stop offset="0.64" stop-color="#F2FCFF"/>
<stop offset="0.8" stop-color="#FCFEFF"/>
<stop offset="1" stop-color="white"/>
</linearGradient>
<linearGradient id="paint7_linear_2_198" x1="28219.1" y1="2653.14" x2="27644.3" y2="934.053" gradientUnits="userSpaceOnUse">
<stop stop-color="#68E1FD"/>
<stop offset="0.08" stop-color="#84E6FD"/>
<stop offset="0.21" stop-color="#A9EEFE"/>
<stop offset="0.35" stop-color="#C8F4FE"/>
<stop offset="0.49" stop-color="#E0F9FF"/>
<stop offset="0.64" stop-color="#F2FCFF"/>
<stop offset="0.8" stop-color="#FCFEFF"/>
<stop offset="1" stop-color="white"/>
</linearGradient>
<linearGradient id="paint8_linear_2_198" x1="29010.9" y1="2414.43" x2="28449.4" y2="712.566" gradientUnits="userSpaceOnUse">
<stop stop-color="#68E1FD"/>
<stop offset="0.08" stop-color="#84E6FD"/>
<stop offset="0.21" stop-color="#A9EEFE"/>
<stop offset="0.35" stop-color="#C8F4FE"/>
<stop offset="0.49" stop-color="#E0F9FF"/>
<stop offset="0.64" stop-color="#F2FCFF"/>
<stop offset="0.8" stop-color="#FCFEFF"/>
<stop offset="1" stop-color="white"/>
</linearGradient>
<linearGradient id="paint9_linear_2_198" x1="73231.3" y1="-59190.5" x2="43400.2" y2="-59547.2" gradientUnits="userSpaceOnUse">
<stop stop-color="white" stop-opacity="0"/>
<stop offset="1" stop-color="white"/>
</linearGradient>
<linearGradient id="paint10_linear_2_198" x1="368.735" y1="548.287" x2="376.955" y2="495.528" gradientUnits="userSpaceOnUse">
<stop stop-color="#010101" stop-opacity="0"/>
<stop offset="0.95" stop-color="#010101"/>
</linearGradient>
<linearGradient id="paint11_linear_2_198" x1="10647.2" y1="10416.3" x2="10725.1" y2="9292.09" gradientUnits="userSpaceOnUse">
<stop stop-color="#010101" stop-opacity="0"/>
<stop offset="0.95" stop-color="#010101"/>
</linearGradient>
<linearGradient id="paint12_linear_2_198" x1="23313.2" y1="63073.6" x2="31913.9" y2="57485.2" gradientUnits="userSpaceOnUse">
<stop stop-color="#010101" stop-opacity="0"/>
<stop offset="0.95" stop-color="#010101"/>
</linearGradient>
<linearGradient id="paint13_linear_2_198" x1="12287.3" y1="9544.07" x2="13817.2" y2="9433.65" gradientUnits="userSpaceOnUse">
<stop stop-color="#010101" stop-opacity="0"/>
<stop offset="0.95" stop-color="#010101"/>
</linearGradient>
<linearGradient id="paint14_linear_2_198" x1="6504.77" y1="8137" x2="4961.97" y2="8002.44" gradientUnits="userSpaceOnUse">
<stop stop-color="#010101" stop-opacity="0"/>
<stop offset="0.95" stop-color="#010101"/>
</linearGradient>
<linearGradient id="paint15_linear_2_198" x1="6623.36" y1="2619.07" x2="6680.56" y2="2222.11" gradientUnits="userSpaceOnUse">
<stop stop-color="#010101" stop-opacity="0"/>
<stop offset="0.95" stop-color="#010101"/>
</linearGradient>
<linearGradient id="paint16_linear_2_198" x1="5447" y1="5049.42" x2="5382.78" y2="7740.41" gradientUnits="userSpaceOnUse">
<stop stop-color="#010101" stop-opacity="0"/>
<stop offset="0.95" stop-color="#010101"/>
</linearGradient>
<linearGradient id="paint17_linear_2_198" x1="12056.9" y1="5435.35" x2="13538.3" y2="5435.35" gradientUnits="userSpaceOnUse">
<stop stop-color="#010101" stop-opacity="0"/>
<stop offset="0.95" stop-color="#010101"/>
</linearGradient>
<linearGradient id="paint18_linear_2_198" x1="20643.9" y1="3799.42" x2="20668.8" y2="11024.8" gradientUnits="userSpaceOnUse">
<stop stop-color="#010101" stop-opacity="0"/>
<stop offset="0.95" stop-color="#010101"/>
</linearGradient>
<linearGradient id="paint19_linear_2_198" x1="506.49" y1="364.818" x2="511.337" y2="234.671" gradientUnits="userSpaceOnUse">
<stop stop-color="white" stop-opacity="0"/>
<stop offset="0.95" stop-color="white"/>
</linearGradient>
<linearGradient id="paint20_linear_2_198" x1="12901.4" y1="13365.2" x2="13151.1" y2="18432.1" gradientUnits="userSpaceOnUse">
<stop stop-color="white" stop-opacity="0"/>
<stop offset="0.95" stop-color="white"/>
</linearGradient>
<linearGradient id="paint21_linear_2_198" x1="6322.35" y1="3979.22" x2="6474.99" y2="5341.18" gradientUnits="userSpaceOnUse">
<stop stop-color="white" stop-opacity="0"/>
<stop offset="0.95" stop-color="white"/>
</linearGradient>
<clipPath id="clip0_2_198">
<rect width="736" height="656" fill="white"/>
</clipPath>
<clipPath id="clip1_2_198">
<rect width="608.979" height="602.381" fill="white" transform="translate(69.2021 112.327)"/>
</clipPath>
</defs>
</svg>
