<svg width="468" height="363" viewBox="0 0 468 363" fill="none" xmlns="http://www.w3.org/2000/svg">
<g clip-path="url(#clip0_2_56)">
<path opacity="0.24" d="M277.857 28.0549C266.69 21.6725 253.397 18.0932 240.866 20.908C232.497 22.8192 224.972 27.3599 217.643 31.8543L151.754 72.315C136.645 81.5817 120.936 91.4623 111.908 106.741C106.845 115.301 104.221 125.054 100.048 134.078C91.3205 153.016 75.7729 168.909 71.0566 189.226C64.5486 217.107 80.547 245.985 102.267 264.669C123.988 283.353 150.887 294.473 175.694 308.685C191.23 317.593 206.072 327.786 222.256 335.466C237.203 342.641 253.206 347.357 269.65 349.436C281.325 350.837 293.485 350.722 304.432 346.424C331.355 335.849 343.007 304.319 364.958 285.449C376.333 275.661 390.285 269.487 402.989 261.495C415.693 253.502 427.796 242.741 431.83 228.262C436.997 209.729 427.472 189.956 414.422 175.824C401.371 161.692 384.829 151.209 371.351 137.483C354.844 120.687 348 99.2579 334.707 80.4929C320.812 61.0444 298.479 39.8468 277.857 28.0549Z" fill="#06B461"/>
<path opacity="0.24" d="M360.808 251.475C348.567 254.093 339.342 263.904 330.95 273.206L318.038 287.569C314.57 291.368 311.102 295.411 309.946 300.415C307.831 310.307 315.946 319.169 323.367 326.026L352.717 353.073C356.184 356.282 359.756 359.548 364.149 361.286C368.773 363.104 373.894 363.058 378.864 362.977C389.557 362.792 401.07 362.317 409.555 355.807C416.028 350.838 419.762 343.065 425.831 337.586C443.945 321.277 453.123 306.809 429.576 290.708C409.162 276.773 389.037 245.417 360.808 251.475Z" fill="#06B461"/>
<path opacity="0.24" d="M107.065 102.432C111.688 105.629 116.393 108.722 120.127 112.857C123.262 116.509 125.633 120.756 127.096 125.345C128.56 129.934 129.087 134.771 128.646 139.568C127.685 149.21 123.75 158.311 117.387 165.608C113.654 170.021 109.215 173.832 105.828 178.488C103.516 181.639 101.655 185.137 99.3081 188.288C96.0616 192.504 92.0041 196.024 87.3758 198.64C82.7475 201.256 77.6425 202.916 72.3628 203.52C61.7238 204.664 51.0255 201.979 42.1808 195.945C29.0376 187.072 21.1887 172.453 11.259 160.036C7.90674 155.854 4.21925 151.812 2.13853 146.877C-0.913195 139.626 -0.173383 131.39 0.982572 123.618C1.90734 117.803 3.15577 111.629 7.08602 107.181C11.9179 101.737 19.6513 100.127 25.8356 96.2927C38.2968 88.6129 47.5445 69.9289 64.4908 72.1182C72.0276 73.0912 78.1773 78.8249 83.6565 83.6089C91.1215 90.2936 98.9352 96.5768 107.065 102.432Z" fill="#06B461"/>
<path opacity="0.24" d="M332.707 26.8735C323.529 35.1672 314.57 44.735 311.761 56.7933C308.513 70.6934 314.073 85.1494 321.806 97.0803C329.54 109.011 339.527 119.413 346.706 131.703C348.96 135.537 351.041 139.684 354.624 142.313C358.728 145.325 364.091 145.788 369.166 146.229C389.476 147.827 412.225 148.661 427.553 135.213C440.269 124.046 444.222 106.023 453.77 92.0416C457.18 87.0607 461.411 82.381 462.902 76.5198C465.33 66.9635 459.793 57.2914 453.863 49.4147C440.939 32.1902 419.623 7.34388 398.169 1.42477C374.553 -5.08509 349.168 11.9888 332.707 26.8735Z" fill="#06B461"/>
<path d="M361.086 86.6437L243.525 160.777L240.335 155.657L357.895 81.5354L361.086 86.6437Z" fill="#06B461"/>
<path d="M91.7782 130.625L89.3315 136.139L186.413 179.39L188.859 173.876L91.7782 130.625Z" fill="#06B461"/>
<path d="M77.0513 68.407L33.3754 72.521C26.8222 73.1383 22.0091 78.962 22.6251 85.5287L33.0106 196.241C33.6266 202.808 39.4384 207.631 45.9916 207.014L89.6676 202.9C96.2207 202.282 101.034 196.459 100.418 189.892L90.0323 79.1794C89.4163 72.6127 83.6045 67.7898 77.0513 68.407Z" fill="#06B461"/>
<path d="M77.0513 68.407L33.3754 72.521C26.8222 73.1383 22.0091 78.962 22.6251 85.5287L33.0106 196.241C33.6266 202.808 39.4384 207.631 45.9916 207.014L89.6676 202.9C96.2207 202.282 101.034 196.459 100.418 189.892L90.0323 79.1794C89.4163 72.6127 83.6045 67.7898 77.0513 68.407Z" fill="url(#paint0_linear_2_56)"/>
<path d="M77.1657 68.2476L33.2366 72.3855C26.7533 72.9962 21.9916 78.7578 22.601 85.2544L32.742 193.36C33.3515 199.857 39.1012 204.629 45.5845 204.018L89.5137 199.88C95.9969 199.269 100.759 193.508 100.149 187.011L90.0082 78.9051C89.3987 72.4085 83.649 67.637 77.1657 68.2476Z" fill="#06B461"/>
<path d="M75.4145 71.4692L35.8932 75.1918C30.0646 75.7408 25.7837 80.9207 26.3316 86.7613L35.433 183.785C35.9809 189.625 41.1501 193.915 46.9786 193.366L86.4999 189.643C92.3285 189.094 96.6094 183.914 96.0615 178.074L86.9601 81.0505C86.4122 75.2099 81.243 70.9202 75.4145 71.4692Z" fill="white"/>
<path opacity="0.18" d="M58.4913 103.532C53.2514 104.014 48.2721 106.044 44.1839 109.363C40.0957 112.683 37.0824 117.143 35.5256 122.18C33.9687 127.217 33.9383 132.603 35.4383 137.657C36.9382 142.711 39.9011 147.205 43.9516 150.571C48.0021 153.936 52.9582 156.022 58.1923 156.563C63.4264 157.105 68.7031 156.078 73.3543 153.612C78.0055 151.147 81.822 147.353 84.3206 142.713C86.8192 138.073 87.8874 132.794 87.3901 127.545C86.7251 120.525 83.3098 114.055 77.8928 109.554C72.4757 105.053 65.4989 102.887 58.4913 103.532ZM63.0457 152.009C58.7914 152.411 54.5135 151.541 50.7529 149.507C46.9924 147.473 43.9182 144.368 41.9191 140.583C39.92 136.798 39.0858 132.505 39.5221 128.245C39.9583 123.985 41.6454 119.951 44.3699 116.652C47.0944 113.353 50.734 110.938 54.8284 109.712C58.9228 108.486 63.288 108.504 67.3721 109.765C71.4561 111.025 75.0755 113.47 77.7724 116.792C80.4694 120.113 82.1228 124.162 82.5236 128.425C83.0546 134.139 81.3022 139.831 77.6507 144.252C73.9992 148.673 68.7469 151.463 63.0457 152.009Z" fill="#06B461"/>
<path d="M62.0054 117.838L64.271 142.07L70.2127 135.827L65.8547 136.232L64.1208 117.78L62.0054 117.838Z" fill="#06B461"/>
<path d="M62.2134 142.267L59.9361 118.035L54.0061 124.278L58.3525 123.873L60.0864 142.325L62.2134 142.267Z" fill="#06B461"/>
<path d="M237.549 107.575C222.479 107.566 207.745 112.033 195.208 120.412C182.671 128.791 172.894 140.706 167.112 154.651C161.331 168.596 159.804 183.946 162.725 198.76C165.646 213.575 172.883 227.189 183.523 237.883C194.163 248.577 207.727 255.871 222.502 258.843C237.277 261.815 252.6 260.331 266.533 254.58C280.467 248.828 292.387 239.067 300.787 226.53C309.187 213.993 313.69 199.242 313.726 184.141C313.837 174.075 311.944 164.088 308.158 154.763C304.372 145.439 298.769 136.964 291.676 129.835C284.583 122.706 276.143 117.065 266.849 113.243C257.555 109.421 247.595 107.494 237.549 107.575ZM248.854 142.754C248.825 142.538 248.866 142.319 248.97 142.128C249.189 141.804 249.432 141.387 249.756 141.306C250.079 141.225 250.391 141.56 250.831 141.781C250.033 142.603 250.368 143.055 251.073 143.414C251.243 143.497 251.39 143.62 251.501 143.773C251.684 144.329 251.933 144.862 252.241 145.36C252.72 145.746 253.253 146.059 253.825 146.286C253.358 146.705 252.863 147.092 252.345 147.445C251.846 147.756 251.305 147.994 250.738 148.151C250.277 148.198 249.812 148.198 249.351 148.151C249.36 148.067 249.36 147.981 249.351 147.897L250.322 147.294C249.975 146.866 249.478 146.53 249.432 146.136C249.386 145.742 249.86 145.337 250.137 144.873C249.698 144.167 249.051 143.842 248.6 144.144C247.247 145.047 247.155 145.302 247.767 146.275C246.889 146.622 246.045 146.947 245.143 147.259C244.958 146.344 246.022 145.51 245.143 144.688C245.323 144.38 245.582 144.127 245.893 143.953C246.204 143.78 246.556 143.694 246.912 143.703C247.27 143.703 247.617 143.703 247.952 143.703C248.507 143.611 248.923 143.449 248.854 142.754ZM227.006 123.27C228.787 123.537 230.578 123.653 232.359 123.792C232.683 123.862 233.021 123.845 233.338 123.744C233.654 123.642 233.938 123.459 234.162 123.212C234.37 122.969 234.844 122.923 235.202 122.865C236.589 122.645 238 122.39 239.398 122.239C240.136 122.175 240.878 122.211 241.606 122.344C243.317 122.61 245.074 122.946 246.727 123.247C247.001 123.292 247.257 123.412 247.467 123.595C246.762 123.595 246.045 123.676 245.34 123.757C244.891 123.791 244.45 123.896 244.034 124.07C243.398 124.394 242.808 124.741 242.774 125.68C242.767 126.138 242.608 126.581 242.321 126.938C242.034 127.295 241.636 127.545 241.19 127.649C240.258 127.978 239.347 128.365 238.462 128.807C238 129.027 238 129.294 238.462 129.56C239.098 129.919 239.745 130.255 240.45 130.718C239.364 131.135 239.364 131.135 237.098 130.093L238.057 131.703C236.612 132.085 235.11 132.514 233.607 132.861C232.207 133.106 230.898 133.722 229.815 134.645C228.725 135.432 227.425 135.875 226.082 135.919C225.377 136.058 224.822 136.174 224.822 137.078C224.822 137.414 224.498 137.796 224.221 138.085C223.842 138.425 223.432 138.728 222.995 138.989C222.638 139.245 222.217 139.398 221.779 139.43C221.341 139.461 220.902 139.371 220.512 139.168C220.122 138.965 219.796 138.658 219.569 138.281C219.342 137.904 219.224 137.472 219.227 137.031C219.137 136.558 219.11 136.075 219.146 135.595C219.295 135.047 219.508 134.518 219.782 134.02C219.938 133.805 220.12 133.61 220.325 133.441C222.29 131.309 221.851 129.062 219.319 127.649C218.256 127.026 217.075 126.631 215.852 126.49C215.417 126.369 215.006 126.173 214.638 125.911C216.325 125.633 217.955 125.413 219.562 125.112C220.249 124.929 220.918 124.685 221.562 124.382C223.25 123.547 225.126 123.163 227.006 123.27ZM243.698 134.854C243.696 135.048 243.649 135.239 243.56 135.411C243.472 135.584 243.345 135.734 243.19 135.85C242.541 136.25 241.856 136.588 241.144 136.858C240.834 137.019 240.478 137.066 240.137 136.99C239.797 136.913 239.494 136.719 239.283 136.441C239.063 136.174 238.601 136.093 238.254 135.931C238.254 135.838 238.254 135.757 238.173 135.676C238.52 135.537 238.843 135.352 239.179 135.248C240.265 134.946 241.329 134.668 242.392 134.402C242.901 134.286 243.514 134.286 243.698 134.854ZM205.737 125.656C206.234 125.506 206.766 125.402 207.286 125.263C207.806 125.124 208.511 124.996 208.742 124.232C208.812 124.071 208.916 123.928 209.048 123.814C209.18 123.7 209.337 123.617 209.505 123.571C209.771 123.571 210.014 123.467 210.268 123.432C211.054 123.27 211.875 123.154 212.684 123.027C213.331 122.995 213.974 122.902 214.603 122.749C215.776 122.292 217.035 122.098 218.291 122.181C218.695 122.181 219.077 122.1 219.447 122.089C219.816 122.077 220.186 122.089 220.603 122.089C220.591 122.181 220.591 122.275 220.603 122.367C219.265 123.441 217.672 124.148 215.979 124.417C213.635 124.806 211.399 125.682 209.413 126.989C208.8 127.394 208.153 127.718 207.667 126.768C207.586 126.583 207.217 126.479 206.962 126.444C206.345 126.39 205.734 126.282 205.136 126.12C205.311 125.936 205.514 125.779 205.737 125.656ZM201.703 127.857C201.645 127.857 201.61 127.788 201.506 127.73C202.084 126.745 202.731 126.444 203.737 126.907C204.219 127.155 204.745 127.304 205.285 127.346C205.825 127.388 206.367 127.321 206.881 127.151C206.941 127.199 206.995 127.253 207.043 127.313C206.881 127.533 206.777 127.857 206.581 127.938C206.095 128.135 205.552 128.17 205.055 128.355C204.94 128.399 204.836 128.469 204.752 128.56C204.668 128.65 204.605 128.758 204.569 128.877C204.569 129.004 204.812 129.305 204.997 129.363L205.656 129.537C207.425 130.07 209.193 130.521 210.973 131.054C211.147 131.161 211.271 131.331 211.32 131.529C211.306 131.796 211.263 132.06 211.193 132.317C210.869 133.742 211.251 134.263 212.719 134.286C212.732 134.533 212.657 134.776 212.506 134.972C212.355 135.167 212.14 135.302 211.898 135.352C210.939 135.595 209.991 135.896 209.066 136.197C208.627 136.336 208.164 136.475 208.303 137.124C208.3 137.2 208.28 137.274 208.246 137.342C208.213 137.41 208.165 137.47 208.107 137.518C207.695 137.79 207.209 137.927 206.716 137.91C206.224 137.894 205.748 137.724 205.355 137.425C205.192 137.237 205.082 137.009 205.035 136.764C204.988 136.52 205.007 136.267 205.089 136.031C205.171 135.796 205.314 135.587 205.503 135.425C205.692 135.263 205.92 135.154 206.165 135.109C206.719 134.97 207.321 134.935 207.887 134.773C208.017 134.743 208.141 134.688 208.25 134.61C208.359 134.533 208.452 134.434 208.523 134.321C208.581 134.182 208.349 133.869 208.164 133.684C207.061 132.653 205.677 131.976 204.188 131.738C203.736 131.66 203.281 131.605 202.824 131.576C201.749 131.506 200.662 131.39 199.576 131.274C199.113 131.205 198.535 131.274 198.501 130.568C198.474 130.422 198.481 130.272 198.521 130.129C198.561 129.986 198.632 129.854 198.73 129.742C198.828 129.631 198.949 129.543 199.086 129.486C199.222 129.428 199.37 129.402 199.518 129.409C200.239 129.389 200.958 129.315 201.668 129.189C201.992 129.189 202.442 128.911 202.489 128.691C202.593 128.228 202.269 127.857 201.703 127.857ZM211.135 148.962C211.413 149.287 211.921 149.785 211.84 150.051C211.758 150.314 211.585 150.539 211.352 150.686C211.119 150.832 210.841 150.891 210.569 150.85C209.599 150.721 208.622 150.648 207.644 150.63C208.484 149.418 209.674 148.492 211.054 147.978C210.812 148.198 210.638 148.36 210.372 148.58C210.648 148.659 210.907 148.788 211.135 148.962ZM213.863 217.026C213.074 217.532 212.352 218.135 211.713 218.822C211.34 219.421 211.096 220.091 210.996 220.791C210.733 222.063 210.385 223.317 209.956 224.544C209.644 225.25 208.8 225.702 208.268 226.339C207.865 226.885 207.274 227.261 206.609 227.394C205.945 227.526 205.255 227.406 204.673 227.057C204.373 227.926 204.951 228.471 205.298 229.073C205.818 229.988 205.818 229.988 204.939 230.613C204.061 231.239 203.413 231.864 202.627 232.525C202.354 232.776 202.154 233.098 202.05 233.456C201.946 233.813 201.942 234.192 202.038 234.552C202.027 235.197 201.942 235.838 201.784 236.463C201.682 236.789 201.635 237.13 201.645 237.471C201.714 238.131 201.922 238.78 202.003 239.44C202.142 240.598 202.223 241.676 202.327 242.776C202.327 243.205 202.477 243.459 202.986 243.506C203.182 243.506 203.448 243.761 203.541 243.969C203.841 244.583 204.107 245.232 204.373 245.857C204.2 245.989 204.003 246.086 203.793 246.141C203.583 246.196 203.364 246.209 203.149 246.179C202.934 246.148 202.727 246.076 202.541 245.965C202.354 245.854 202.191 245.707 202.061 245.533C201.66 244.771 201 244.179 200.2 243.865C198.895 243.292 197.843 242.263 197.241 240.969C196.547 239.579 195.761 238.374 195.981 236.648C196.108 236.116 196.035 235.556 195.778 235.073C195.52 234.591 195.094 234.22 194.582 234.031C194.374 233.973 194.235 233.556 194.2 233.289C194.073 232.2 194.016 231.1 193.911 230.011C193.692 227.694 193.414 225.378 193.276 223.061C193.172 221.335 193.276 219.586 193.276 217.86C193.276 217.073 193.276 216.296 193.276 215.543C193.197 214.537 192.815 213.577 192.182 212.792C191.548 212.006 190.693 211.431 189.727 211.142C189.199 211.039 188.726 210.747 188.396 210.321C188.067 209.895 187.903 209.363 187.935 208.825C187.957 208.348 187.84 207.874 187.598 207.463C187.356 207.052 186.999 206.72 186.571 206.508C185.42 205.868 184.55 204.818 184.132 203.566C183.976 203.194 183.743 202.859 183.45 202.582C183.14 202.292 182.911 201.925 182.788 201.518C182.664 201.111 182.649 200.679 182.745 200.265C182.776 199.691 182.737 199.115 182.629 198.551C182.544 198.171 182.509 197.781 182.525 197.392C182.68 196.282 183.074 195.218 183.681 194.276C184.374 193.277 184.941 192.195 185.369 191.056C185.612 190.448 185.644 189.775 185.462 189.145C185.28 188.516 184.893 187.965 184.363 187.581C184.185 187.491 183.991 187.439 183.791 187.429C183.592 187.419 183.393 187.451 183.207 187.523C182.848 187.758 182.422 187.871 181.994 187.846C181.565 187.821 181.156 187.659 180.826 187.384C179.405 186.483 178.238 185.23 177.439 183.747C177.296 183.535 177.09 183.373 176.85 183.284C176.506 183.146 176.144 183.064 175.775 183.041C174.768 182.975 173.829 182.513 173.162 181.755C172.766 181.337 172.28 181.015 171.741 180.814C171.202 180.614 170.625 180.539 170.053 180.596C169.893 180.638 169.726 180.638 169.567 180.596C167.264 180.011 165.162 178.81 163.487 177.121C163.244 176.793 163.073 176.417 162.983 176.018C162.893 175.619 162.888 175.206 162.967 174.805C163.568 170.158 164.617 165.581 166.099 161.136C168.341 154.285 171.577 147.802 175.705 141.896C177.231 139.684 179 137.611 180.664 135.479C180.907 135.155 181.161 135.004 181.531 135.259C181.777 135.412 182.052 135.513 182.338 135.555C182.625 135.597 182.917 135.579 183.196 135.502C184.56 135.34 185.935 135.398 187.265 135.12C188.87 134.772 190.441 134.28 191.958 133.649C192.517 133.325 192.996 132.879 193.358 132.343C193.72 131.807 193.957 131.197 194.05 130.556C194.143 130.209 194.27 129.85 194.385 129.491C194.79 128.182 194.79 128.182 196.131 128.483L198.894 129.108C198.119 129.386 197.31 129.653 196.582 129.977C196.119 130.139 196.062 130.452 196.374 130.834C196.94 131.506 197.437 132.19 198.004 132.827C198.165 132.989 198.57 133.128 198.709 133.047C199.865 132.363 201.021 132.664 202.234 132.572C201.928 133.105 201.563 133.602 201.148 134.054C200.717 134.373 200.218 134.587 199.691 134.68C198.304 134.958 196.894 135.143 195.518 135.363C195.453 135.833 195.215 136.261 194.852 136.565C194.489 136.869 194.026 137.027 193.553 137.008C191.755 137.304 190.07 138.081 188.675 139.255C188.18 139.529 187.802 139.974 187.612 140.508C187.423 141.041 187.435 141.626 187.646 142.151C187.796 142.603 187.935 143.159 188.652 142.8C188.756 142.8 188.999 142.8 189.137 142.939C189.819 143.286 190.455 143.657 191.126 144.005C191.796 144.352 192.282 144.711 192.964 144.445C193.125 144.445 193.345 144.549 193.345 144.526C193.172 145.684 192.987 146.634 192.79 147.746C193.173 147.761 193.554 147.677 193.894 147.5C194.235 147.323 194.524 147.061 194.732 146.738C196.038 144.873 197.402 143.055 198.72 141.225C198.938 140.967 199.135 140.692 199.31 140.402C199.677 139.68 200.28 139.105 201.018 138.774C201.756 138.444 202.585 138.376 203.367 138.584C204.269 138.734 204.893 138.931 204.812 140.02C204.812 140.182 205.228 140.46 205.471 140.495C206.558 140.622 207.101 140.495 208.939 139.672C209.009 139.84 209.059 140.015 209.089 140.194C209.118 140.436 209.118 140.681 209.089 140.923C208.856 141.829 208.963 142.79 209.389 143.622C209.815 144.455 210.531 145.102 211.401 145.441L211.759 145.626C210.44 146.881 208.72 147.628 206.904 147.734C205.644 147.732 204.405 148.059 203.309 148.684C202.394 149.116 201.448 149.476 200.477 149.761C200.145 149.972 199.842 150.225 199.576 150.514L199.703 150.746L203.286 150.433C203.148 151.314 203.286 151.835 204.211 151.916C204.558 151.916 204.858 152.414 205.298 152.785C203.749 153.086 202.986 154.789 201.009 154.372C201.61 153.827 202.073 153.387 202.546 152.947C201.83 152.136 201.645 152.055 200.685 152.657C199.726 153.26 198.882 153.989 197.98 154.65C197.738 154.835 197.518 155.113 197.252 155.148C195.669 155.449 194.882 156.758 193.865 157.789C193.798 157.868 193.725 157.941 193.646 158.009C193.446 158.281 193.189 158.506 192.894 158.668C192.598 158.83 192.271 158.925 191.935 158.947C191.62 158.948 191.316 159.064 191.079 159.271C190.804 159.518 190.624 159.855 190.571 160.221C190.632 160.89 190.486 161.561 190.153 162.143C189.82 162.726 189.316 163.191 188.71 163.476C187.602 164.069 186.546 164.755 185.554 165.526C185.14 165.958 184.862 166.503 184.755 167.092C184.648 167.681 184.717 168.289 184.953 168.839C185.141 169.225 185.239 169.649 185.239 170.079C185.239 170.508 185.141 170.932 184.953 171.318C184.872 171.515 184.41 171.677 184.109 171.677C183.808 171.677 183.635 171.399 183.566 171.179C183.334 170.195 183.15 169.164 182.907 168.156C182.772 167.816 182.597 167.493 182.387 167.194C182.319 167.215 182.253 167.243 182.19 167.276C182.19 167.658 182.19 168.04 182.19 168.434C182.131 168.489 182.065 168.536 181.994 168.573C181.739 168.295 181.497 167.994 181.208 167.727C180.834 167.369 180.419 167.058 179.971 166.801C179.734 166.695 179.467 166.682 179.221 166.763C178.975 166.845 178.769 167.015 178.641 167.241C178.167 167.889 177.601 168.469 177.104 169.059C176.696 168.556 176.26 168.077 175.798 167.623C175.696 167.544 175.578 167.487 175.452 167.457C175.327 167.427 175.196 167.424 175.069 167.449C174.11 167.595 173.24 168.095 172.63 168.851C171.979 169.631 171.259 170.352 170.48 171.005C170.114 171.251 169.856 171.629 169.759 172.06C169.663 172.491 169.734 172.943 169.96 173.322C170.075 173.653 170.102 174.008 170.041 174.353C169.865 175.284 170.046 176.246 170.548 177.049C171.049 177.852 171.834 178.436 172.746 178.685C173.228 178.853 173.754 178.842 174.229 178.655C174.703 178.468 175.096 178.117 175.335 177.666C175.532 177.237 175.671 176.786 175.879 176.334C175.918 176.203 175.984 176.083 176.073 175.98C176.163 175.877 176.273 175.795 176.396 175.738C176.52 175.681 176.654 175.651 176.79 175.65C176.926 175.648 177.06 175.676 177.185 175.731C177.339 175.893 177.455 176.087 177.523 176.3C177.591 176.513 177.61 176.738 177.578 176.959C177.405 177.712 177.177 178.452 176.896 179.172C176.642 179.994 176.815 180.33 177.682 180.562C178.306 180.678 178.942 180.759 179.589 180.84C179.76 180.837 179.93 180.872 180.085 180.943C180.241 181.014 180.379 181.118 180.49 181.249C180.601 181.38 180.681 181.533 180.725 181.699C180.769 181.865 180.776 182.038 180.745 182.207C180.679 183.145 180.706 184.088 180.826 185.021C180.973 185.573 181.269 186.074 181.681 186.469C181.824 186.567 181.99 186.626 182.162 186.64C182.334 186.655 182.507 186.624 182.664 186.55C182.944 186.368 183.263 186.257 183.595 186.225C183.927 186.192 184.262 186.24 184.571 186.365C184.819 186.46 185.074 186.533 185.334 186.585C186.49 186.875 186.779 186.666 187.565 185.832C188.068 185.349 188.651 184.957 189.288 184.674C189.386 184.647 189.49 184.646 189.589 184.67C189.688 184.694 189.779 184.743 189.854 184.813C189.902 184.896 189.927 184.989 189.927 185.085C189.927 185.181 189.902 185.274 189.854 185.357C189.218 185.925 189.554 186.203 190.12 186.446L191.461 187.002C190.594 185.6 191.738 185.114 192.258 184.268C192.463 184.4 192.66 184.543 192.848 184.697C193.22 185.101 193.678 185.416 194.189 185.616C194.699 185.817 195.249 185.899 195.796 185.855H195.958C197.432 185.88 198.842 186.459 199.911 187.477C201.403 188.775 203.195 189.679 205.124 190.106C205.519 190.163 205.896 190.304 206.231 190.52C206.566 190.736 206.851 191.021 207.066 191.357C207.401 191.937 207.864 192.516 208.222 193.06C208.387 193.204 208.508 193.392 208.571 193.603C208.633 193.813 208.635 194.036 208.576 194.248C208.516 194.459 208.398 194.649 208.235 194.795C208.073 194.942 207.872 195.039 207.656 195.076L206.754 195.516C206.997 195.979 207.274 196.118 207.714 195.863C208.036 195.673 208.388 195.536 208.754 195.458C209.041 195.493 209.307 195.629 209.505 195.84C209.505 195.84 209.378 196.164 209.32 196.338C209.263 196.512 209.205 196.778 209.239 196.802C209.407 196.912 209.607 196.961 209.806 196.941C209.968 196.924 210.117 196.845 210.222 196.721C210.378 196.541 210.571 196.397 210.787 196.299C211.004 196.2 211.239 196.149 211.476 196.149C211.714 196.149 211.949 196.2 212.165 196.299C212.381 196.397 212.574 196.541 212.73 196.721C212.834 196.825 213.031 196.883 213.031 196.964C213.147 198.284 214.06 197.751 214.615 197.52C214.894 197.418 215.19 197.375 215.487 197.393C215.783 197.411 216.072 197.49 216.337 197.624C217.724 198.226 219.169 198.713 220.614 199.211C220.828 199.27 221.018 199.397 221.155 199.572C221.292 199.747 221.37 199.961 221.377 200.184C221.528 201.302 221.433 202.439 221.097 203.516C220.762 204.593 220.194 205.583 219.435 206.416C219.317 206.566 219.161 206.682 218.984 206.752C218.348 207.03 218.302 207.551 218.291 208.142C218.293 209.619 218.219 211.096 218.071 212.567C217.883 213.473 217.571 214.35 217.146 215.173C216.823 215.833 216.499 216.54 215.435 216.331C215.097 216.324 214.766 216.435 214.499 216.644C214.268 216.748 214.06 216.91 213.863 217.026ZM293.763 211.061C293.173 212.52 292.815 214.107 292.318 215.625C292.151 216.076 291.934 216.508 291.671 216.91C290.931 218.312 290.931 218.312 289.359 218.069C289.067 217.973 288.798 217.821 288.566 217.62C288.334 217.419 288.145 217.174 288.008 216.9C287.871 216.625 287.791 216.325 287.771 216.019C287.75 215.713 287.791 215.405 287.891 215.115C288.283 214.612 288.613 214.064 288.873 213.482C289.018 212.849 289.018 212.192 288.873 211.559C288.848 211.104 288.965 210.652 289.207 210.266C289.449 209.88 289.805 209.579 290.226 209.404C290.45 209.377 290.661 209.28 290.827 209.126C291.59 208.362 292.353 207.574 293.069 206.81C293.24 206.563 293.383 206.299 293.497 206.022C293.983 207.655 294.445 209.312 293.763 211.061ZM308.224 171.735C308.008 171.453 307.723 171.232 307.398 171.092C307.072 170.952 306.715 170.898 306.363 170.936C303.854 171.272 301.508 170.496 299.161 169.778C297.526 169.325 295.967 168.63 294.537 167.716C293.362 167.082 292.088 166.651 290.769 166.442C290.847 166.642 290.894 166.853 290.908 167.067C290.607 168.897 291.971 169.766 293.035 170.808C293.497 171.249 293.913 171.712 294.422 172.233L297.566 171.388C297.945 171.248 298.362 171.248 298.741 171.388C299.12 171.528 299.437 171.799 299.635 172.152C300.178 172.809 300.765 173.428 301.392 174.006C301.959 174.631 301.82 174.793 301.173 175.268C299.577 176.426 297.705 177.307 296.549 178.952C296.39 179.16 296.194 179.337 295.971 179.473C294.965 180.133 293.948 180.759 292.942 181.419C292.594 181.617 292.206 181.738 291.807 181.773C291.408 181.808 291.005 181.756 290.628 181.62C290.25 181.485 289.906 181.27 289.62 180.989C289.333 180.708 289.11 180.369 288.966 179.994C288.528 178.503 287.775 177.124 286.758 175.951C286.273 175.233 285.884 174.455 285.602 173.635C285.2 172.72 284.475 171.986 283.567 171.573C283.172 171.418 282.816 171.176 282.526 170.866C282.236 170.555 282.019 170.183 281.891 169.778C281.487 168.619 280.92 167.53 280.446 166.395C279.29 166.859 279.29 166.859 279.626 167.994C280.183 169.913 281.021 171.74 282.111 173.415C283.81 176.114 285.798 178.685 286.862 181.755C287.139 182.566 287.347 183.411 287.659 184.187C288.145 185.346 288.665 185.496 289.775 184.859C289.878 184.775 290.002 184.719 290.133 184.697H294.422C294.258 185.868 294.026 187.028 293.728 188.172C293.488 189.125 293.024 190.006 292.376 190.743C291.391 191.599 290.34 192.373 289.232 193.06C288.949 193.235 288.714 193.478 288.55 193.767C287.324 196.083 286.157 198.307 284.931 200.555C284.631 201.122 284.538 201.586 284.931 202.06C286.619 203.879 286.087 206.103 286.157 208.234C286.157 208.478 285.775 208.779 285.486 208.941C284.12 209.554 282.899 210.45 281.903 211.57C281.506 212.055 281.229 212.627 281.094 213.238C280.883 215.069 280.296 216.836 279.371 218.428C278.007 220.744 276.805 223.189 275.557 225.586C275.456 225.851 275.281 226.081 275.054 226.249C274.826 226.418 274.556 226.517 274.273 226.536L270.644 226.687C270.124 226.687 269.603 226.849 269.06 226.884C268.932 226.902 268.801 226.894 268.676 226.86C268.551 226.826 268.434 226.767 268.332 226.687C267.881 226.351 267.511 225.945 267.176 225.644C267.189 224.426 266.878 223.227 266.274 222.169C266.042 221.758 265.771 221.371 265.465 221.011C264.682 219.867 264.252 218.517 264.228 217.13C264.163 216.342 263.922 215.578 263.523 214.895C262.617 213.501 262.047 211.914 261.859 210.261C261.863 209.335 262.036 208.416 262.367 207.551C262.484 207.172 262.643 206.806 262.841 206.462C263.203 205.719 263.269 204.866 263.026 204.076C262.425 201.317 261.243 198.718 259.558 196.454C259.366 196.143 259.264 195.784 259.264 195.417C259.264 195.051 259.366 194.692 259.558 194.381C259.801 193.859 260.113 193.361 260.414 192.852C260.714 192.342 260.703 192.052 260.159 191.855C259.895 191.781 259.658 191.633 259.475 191.427C259.293 191.222 259.173 190.969 259.13 190.697C259.13 190.535 258.668 190.303 258.448 190.315C257.919 190.375 257.383 190.313 256.882 190.132C256.381 189.951 255.928 189.657 255.559 189.272C255.177 188.89 254.345 188.89 253.697 188.855C253.22 188.88 252.749 188.973 252.299 189.133L245.768 190.697C245.247 190.818 244.703 190.797 244.192 190.636C243.682 190.475 243.224 190.18 242.866 189.782C242.674 189.561 242.456 189.363 242.219 189.191C241.752 188.905 241.364 188.508 241.087 188.035C240.811 187.562 240.656 187.028 240.635 186.481C240.599 186.234 240.503 185.999 240.356 185.797C240.209 185.595 240.015 185.432 239.791 185.322C237.815 184.685 237.549 182.89 237.005 181.326C236.973 181.084 236.99 180.838 237.056 180.603C237.121 180.368 237.234 180.149 237.387 179.959C237.633 179.732 237.801 179.432 237.865 179.103C237.93 178.774 237.888 178.433 237.745 178.129C237.389 177.317 237.242 176.428 237.317 175.544C237.392 174.66 237.686 173.808 238.173 173.067C238.674 171.965 239.445 171.009 240.416 170.287C240.797 170.056 240.901 169.384 241.259 169.129C242.351 168.116 243.119 166.802 243.467 165.353C243.777 164.761 244.216 164.246 244.75 163.847C245.536 163.082 246.392 162.399 247.178 161.634C247.617 161.229 247.918 161.194 248.241 161.75C248.309 161.86 248.402 161.952 248.513 162.019C248.624 162.085 248.748 162.124 248.877 162.133C250.033 161.994 251.293 161.82 252.495 161.658C252.85 161.55 253.214 161.476 253.582 161.438C255.321 161.48 257.044 161.106 258.61 160.349C258.992 160.228 259.405 160.257 259.766 160.43C259.893 160.488 259.893 160.974 259.87 161.252C259.875 161.665 259.977 162.072 260.168 162.438C260.359 162.804 260.633 163.12 260.968 163.36L262.737 165.075C262.864 165.167 262.98 165.33 263.119 165.353C264.274 165.55 265.523 165.77 266.748 165.874C267.349 165.932 267.754 165.654 267.904 164.913C268.066 164.368 268.713 163.94 269.13 163.465C269.154 163.553 269.189 163.639 269.234 163.719C269.484 163.989 269.768 164.227 270.077 164.426C270.735 164.781 271.429 165.064 272.147 165.272C272.672 165.347 273.205 165.347 273.73 165.272C274.022 165.243 274.317 165.243 274.609 165.272C275.869 165.457 277.14 165.619 278.4 165.874C278.607 165.927 278.825 165.922 279.029 165.858C279.233 165.795 279.415 165.676 279.556 165.515C280.112 165.233 280.551 164.764 280.794 164.189C281.038 163.614 281.07 162.972 280.886 162.376C280.762 161.841 280.674 161.3 280.62 160.754C280.224 160.602 279.8 160.541 279.378 160.575C278.956 160.609 278.547 160.738 278.181 160.951C277.743 161.242 277.22 161.376 276.697 161.33C276.174 161.283 275.682 161.06 275.302 160.696C274.031 159.906 273.103 158.665 272.701 157.221C273.927 157.824 274.424 157.071 275.013 155.97C273.487 156.329 272.112 156.619 270.759 157.001C270.627 157.033 270.503 157.096 270.4 157.186C270.296 157.275 270.216 157.388 270.165 157.515C270.114 157.642 270.094 157.78 270.107 157.916C270.12 158.052 270.165 158.183 270.239 158.298C270.343 158.452 270.392 158.635 270.378 158.82C270.327 159.126 270.242 159.425 270.124 159.712C269.742 159.549 269.176 159.492 268.968 159.19C268.69 158.704 268.586 158.159 267.974 157.963C267.926 157.94 267.884 157.905 267.852 157.863C267.82 157.821 267.798 157.772 267.789 157.719C267.904 156.434 266.771 155.808 266.24 154.87C266.124 154.638 265.662 154.499 265.338 154.487C264.923 154.486 264.514 154.386 264.145 154.197C263.776 154.008 263.456 153.734 263.211 153.399C263.03 153.102 262.795 152.843 262.517 152.634C262.09 152.31 261.57 152.09 261.165 152.576C261.059 152.671 260.974 152.787 260.916 152.917C260.858 153.046 260.828 153.187 260.828 153.329C260.828 153.471 260.858 153.612 260.916 153.742C260.974 153.872 261.059 153.988 261.165 154.082C261.899 154.967 262.835 155.662 263.893 156.109C264.621 156.329 264.957 157.001 265.303 157.638C263.777 158.461 262.772 158.183 261.951 156.793C261.688 156.417 261.398 156.061 261.084 155.727C260.576 155.065 260.019 154.442 259.419 153.862C258.622 153.132 257.038 153.074 256.853 154.487C256.825 154.637 256.787 154.784 256.738 154.928L256.194 154.766C255.741 154.571 255.23 154.56 254.769 154.735C254.308 154.91 253.932 155.257 253.721 155.704C253.524 156.005 253.224 156.271 253.004 156.549C252.778 156.769 252.594 157.028 252.461 157.314C252.333 157.879 252.048 158.397 251.639 158.807C251.23 159.217 250.713 159.503 250.149 159.631C248.622 159.895 247.074 160.023 245.525 160.013C245.282 160.013 244.878 159.584 244.854 159.353C244.728 158.295 244.728 157.225 244.854 156.167C244.964 155.644 245.259 155.179 245.683 154.855C246.108 154.532 246.634 154.373 247.166 154.406C248.23 154.406 249.293 154.406 250.38 154.406C250.773 154.406 251.039 154.279 250.993 153.804C250.975 153.615 250.975 153.425 250.993 153.236C251.212 151.974 251.154 151.823 250.01 151.14C249.675 150.943 249.293 150.804 248.947 150.607C248.785 150.503 248.565 150.306 248.588 150.178C248.61 150.079 248.657 149.987 248.723 149.91C248.79 149.833 248.875 149.774 248.97 149.738C249.373 149.619 249.787 149.545 250.207 149.518C251.053 149.554 251.891 149.333 252.61 148.884C253.33 148.436 253.898 147.781 254.241 147.005C254.412 146.568 254.7 146.186 255.073 145.902C255.446 145.618 255.89 145.443 256.356 145.395C257.87 145.151 258.159 144.769 258.356 143.182C258.456 142.781 258.599 142.393 258.784 142.024H259.096C259.35 142.56 259.567 143.113 259.743 143.68C259.783 143.973 259.918 144.245 260.127 144.454C260.335 144.663 260.607 144.798 260.899 144.839C261.48 144.891 262.064 144.891 262.645 144.839C263.65 144.711 264.633 144.514 265.639 144.375C265.997 144.375 266.216 144.375 266.344 143.831C266.471 143.286 266.922 143.113 267.268 142.788C267.615 142.464 268.066 142.279 268.089 141.63C268.194 141.282 268.405 140.976 268.694 140.755C268.982 140.535 269.333 140.411 269.696 140.402C270.014 140.478 270.291 140.673 270.47 140.947C270.67 141.313 270.825 141.702 270.933 142.105C271.458 141.636 271.845 141.032 272.049 140.357C272.253 139.682 272.267 138.964 272.089 138.282C271.689 138.405 271.279 138.49 270.863 138.537C270.284 138.618 269.697 138.618 269.118 138.537C267.453 138.167 267.211 137.379 268.101 136C268.401 135.514 268.76 134.518 268.598 134.414C267.974 133.95 267.442 134.529 266.956 134.935C265.853 135.798 265.045 136.985 264.644 138.329C264.338 139.507 263.855 140.632 263.211 141.665C262.945 142.116 262.124 142.29 261.523 142.371C261.304 142.371 260.957 141.885 260.714 141.572C260.49 141.229 260.285 140.873 260.101 140.506C260.059 140.586 260.032 140.672 260.021 140.761L256.483 140.947C256.427 140.784 256.381 140.617 256.345 140.448C255.824 137.889 255.605 138.236 258.055 137.263C258.78 136.837 259.428 136.293 259.974 135.653C260.541 135.178 261.13 134.692 261.639 134.217C261.75 134.132 261.851 134.035 261.939 133.927C263.604 131.703 266.089 131.332 268.586 130.938C271.083 130.545 272.99 131.541 275.14 132.097L278.712 133.139C277.082 134.448 275.603 133.139 274.216 133.383C274.216 133.464 274.123 133.545 274.135 133.568C274.932 134.434 275.785 135.247 276.689 136C276.855 136.084 277.038 136.129 277.224 136.132C277.41 136.134 277.594 136.094 277.762 136.015C277.93 135.936 278.078 135.819 278.195 135.674C278.311 135.529 278.393 135.36 278.435 135.178C278.574 134.668 278.793 134.425 279.313 134.425C279.649 134.421 279.976 134.317 280.254 134.128C280.531 133.938 280.747 133.671 280.874 133.359C281.14 132.827 281.498 132.583 282.03 132.803C281.949 133.429 282.226 133.707 282.828 133.51C283.062 133.435 283.284 133.326 283.486 133.186C284.199 132.738 285.043 132.546 285.879 132.641C287.063 132.576 288.232 132.338 289.347 131.935C290.388 131.657 290.954 131.761 291.497 132.34C296.416 137.461 300.595 143.247 303.912 149.53C307.86 156.991 310.51 165.073 311.75 173.426C311.761 173.515 311.761 173.604 311.75 173.693C310.016 174.133 309.172 172.766 308.189 171.735H308.224Z" fill="#06B461"/>
<path d="M311.877 173.739C310.004 174.133 309.16 172.766 308.178 171.735C307.963 171.452 307.679 171.229 307.353 171.089C307.027 170.949 306.669 170.896 306.317 170.936C303.808 171.283 301.473 170.496 299.115 169.778C297.479 169.322 295.92 168.623 294.491 167.704C293.324 167.064 292.052 166.641 290.734 166.453C290.807 166.651 290.854 166.857 290.873 167.067C290.573 168.897 291.925 169.766 293 170.808C293.451 171.237 293.879 171.712 294.387 172.233L297.543 171.388C297.921 171.251 298.335 171.252 298.711 171.392C299.088 171.532 299.403 171.802 299.601 172.152C300.141 172.812 300.728 173.431 301.358 174.006C301.936 174.631 301.797 174.793 301.138 175.268C299.543 176.426 297.67 177.295 296.514 178.94C296.35 179.15 296.15 179.331 295.925 179.473L292.884 181.419C292.537 181.618 292.152 181.739 291.754 181.774C291.356 181.81 290.955 181.759 290.578 181.624C290.202 181.49 289.859 181.276 289.572 180.997C289.286 180.717 289.063 180.379 288.92 180.006C288.484 178.513 287.736 177.13 286.723 175.952C286.243 175.23 285.855 174.452 285.567 173.635C285.176 172.717 284.454 171.98 283.544 171.573C283.149 171.418 282.793 171.176 282.503 170.866C282.213 170.555 281.996 170.183 281.868 169.778C281.475 168.619 280.909 167.461 280.412 166.395C279.256 166.859 279.256 166.859 279.591 167.982C280.153 169.906 280.994 171.736 282.088 173.415C283.799 176.114 285.775 178.685 286.839 181.755C287.116 182.566 287.324 183.4 287.636 184.187C288.122 185.346 288.642 185.508 289.752 184.848C289.854 184.771 289.973 184.72 290.099 184.697H294.399C294.234 185.868 294.002 187.028 293.705 188.172C293.462 189.121 293.003 190.001 292.364 190.743C291.374 191.596 290.319 192.371 289.209 193.06C288.93 193.248 288.694 193.493 288.515 193.778C287.301 196.095 286.145 198.331 284.908 200.578C284.729 200.788 284.631 201.055 284.631 201.331C284.631 201.607 284.729 201.874 284.908 202.084C286.585 203.891 286.064 206.126 286.122 208.246C286.122 208.489 285.741 208.79 285.475 208.953C284.109 209.573 282.886 210.468 281.88 211.582C281.484 212.066 281.211 212.638 281.082 213.25C280.856 215.08 280.262 216.846 279.337 218.439C277.996 220.756 276.782 223.2 275.545 225.598C275.44 225.859 275.264 226.087 275.037 226.254C274.811 226.422 274.543 226.523 274.262 226.548C273.037 226.629 271.811 226.675 270.586 226.768C270.054 226.768 269.534 226.93 269.002 226.965C268.754 226.953 268.517 226.854 268.332 226.687C267.893 226.339 267.5 225.934 267.176 225.633C267.181 224.414 266.866 223.216 266.263 222.158C266.022 221.755 265.756 221.368 265.465 220.999C264.669 219.865 264.231 218.517 264.205 217.13C264.146 216.342 263.909 215.578 263.512 214.895C262.607 213.499 262.033 211.914 261.836 210.261C261.848 209.334 262.024 208.417 262.356 207.551C262.463 207.144 262.626 206.754 262.841 206.393C263.194 205.651 263.256 204.803 263.015 204.018C262.409 201.257 261.227 198.655 259.547 196.385C259.356 196.077 259.255 195.722 259.255 195.359C259.255 194.997 259.356 194.642 259.547 194.334C259.806 193.806 260.099 193.295 260.425 192.805C260.714 192.354 260.703 191.994 260.148 191.798C259.883 191.729 259.645 191.582 259.465 191.375C259.286 191.168 259.173 190.912 259.142 190.639C259.142 190.465 258.68 190.234 258.449 190.245C257.921 190.304 257.387 190.24 256.888 190.06C256.389 189.879 255.938 189.586 255.57 189.203C255.189 188.821 254.345 188.821 253.698 188.786C253.22 188.811 252.749 188.905 252.299 189.064L245.779 190.628C245.256 190.75 244.71 190.729 244.198 190.568C243.686 190.407 243.226 190.112 242.866 189.713C242.668 189.498 242.451 189.3 242.219 189.122C241.751 188.836 241.362 188.437 241.087 187.961C240.813 187.486 240.661 186.949 240.647 186.4C240.6 186.162 240.498 185.939 240.349 185.748C240.201 185.557 240.01 185.403 239.791 185.299C237.815 184.662 237.549 182.867 237.017 181.291C236.98 181.052 236.993 180.808 237.057 180.574C237.121 180.34 237.233 180.123 237.387 179.936C237.634 179.707 237.803 179.405 237.867 179.074C237.931 178.743 237.889 178.4 237.745 178.094C237.392 177.283 237.247 176.395 237.324 175.513C237.401 174.631 237.697 173.782 238.185 173.044C238.679 171.945 239.447 170.991 240.416 170.276C240.797 170.021 240.89 169.361 241.26 169.059C242.346 168.04 243.117 166.729 243.479 165.283C243.78 164.689 244.21 164.17 244.739 163.766C245.537 163.013 246.392 162.318 247.19 161.577C247.617 161.171 247.918 161.113 248.253 161.692C248.322 161.798 248.414 161.886 248.522 161.951C248.63 162.015 248.752 162.053 248.877 162.063C250.033 161.936 251.293 161.75 252.495 161.577C252.851 161.475 253.214 161.405 253.582 161.368C255.33 161.388 257.057 160.991 258.622 160.21C259.006 160.098 259.417 160.131 259.778 160.302C259.905 160.36 259.905 160.847 259.882 161.136C259.894 161.554 260.006 161.963 260.206 162.33C260.407 162.697 260.692 163.01 261.038 163.245C261.604 163.824 262.194 164.403 262.795 164.936C262.911 165.052 263.038 165.202 263.176 165.225C264.332 165.422 265.581 165.642 266.795 165.747C267.407 165.804 267.812 165.526 268.02 164.785C268.17 164.229 268.806 163.812 269.176 163.337L269.291 163.592C269.546 163.862 269.834 164.1 270.147 164.299C270.8 164.658 271.49 164.945 272.204 165.156C272.733 165.205 273.265 165.186 273.788 165.098C274.077 165.081 274.366 165.081 274.655 165.098C275.927 165.283 277.198 165.445 278.458 165.712C278.666 165.754 278.882 165.742 279.084 165.677C279.286 165.612 279.469 165.496 279.614 165.341C280.162 165.055 280.594 164.586 280.834 164.015C281.075 163.444 281.109 162.807 280.932 162.214C280.809 161.68 280.724 161.138 280.678 160.592C280.282 160.435 279.856 160.37 279.431 160.402C279.006 160.434 278.595 160.562 278.227 160.777C277.788 161.067 277.264 161.199 276.741 161.15C276.218 161.102 275.727 160.876 275.349 160.511C274.084 159.739 273.156 158.52 272.748 157.094C273.904 157.708 274.482 156.966 275.06 155.866C273.534 156.225 272.158 156.503 270.806 156.885C270.672 156.916 270.548 156.979 270.445 157.069C270.341 157.159 270.261 157.272 270.211 157.4C270.161 157.528 270.142 157.666 270.157 157.802C270.172 157.938 270.22 158.069 270.297 158.183C270.392 158.344 270.44 158.528 270.436 158.715C270.37 159.015 270.281 159.31 270.17 159.596C269.788 159.434 269.234 159.364 269.014 159.075C268.748 158.6 268.633 158.044 268.02 157.847C267.972 157.824 267.93 157.79 267.898 157.747C267.866 157.705 267.844 157.656 267.835 157.603C267.951 156.318 266.818 155.692 266.286 154.742C266.045 154.505 265.722 154.368 265.384 154.36C264.97 154.365 264.56 154.268 264.192 154.079C263.823 153.889 263.506 153.612 263.269 153.271C263.07 152.985 262.828 152.731 262.552 152.518C262.136 152.182 261.616 151.974 261.211 152.46C261.102 152.552 261.014 152.666 260.954 152.795C260.894 152.924 260.862 153.065 260.862 153.208C260.862 153.35 260.894 153.491 260.954 153.62C261.014 153.749 261.102 153.863 261.211 153.955C261.94 154.846 262.872 155.549 263.928 156.005C264.656 156.225 265.003 156.885 265.338 157.534C265.077 157.745 264.77 157.892 264.442 157.963C264.113 158.035 263.773 158.029 263.448 157.946C263.123 157.862 262.821 157.704 262.567 157.484C262.314 157.264 262.114 156.988 261.986 156.677C261.73 156.299 261.444 155.942 261.13 155.611C260.609 154.953 260.049 154.327 259.454 153.735C258.657 153.016 257.073 152.959 256.9 154.372C256.861 154.521 256.815 154.668 256.761 154.812L256.241 154.661C255.787 154.463 255.275 154.448 254.811 154.621C254.347 154.794 253.969 155.141 253.755 155.588C253.528 155.883 253.285 156.165 253.027 156.434C252.8 156.654 252.619 156.918 252.495 157.21C252.369 157.776 252.085 158.294 251.675 158.704C251.266 159.115 250.748 159.4 250.183 159.526C248.656 159.788 247.109 159.92 245.56 159.92C245.34 159.92 244.924 159.492 244.901 159.248C244.78 158.194 244.78 157.129 244.901 156.074C245.006 155.549 245.299 155.081 245.725 154.757C246.151 154.432 246.679 154.275 247.213 154.314C248.288 154.314 249.351 154.314 250.426 154.314C250.842 154.314 251.097 154.198 251.05 153.711C251.022 153.527 251.022 153.34 251.05 153.155C251.247 151.893 251.189 151.754 250.056 151.07C249.71 150.862 249.328 150.723 248.993 150.526C248.658 150.329 248.623 150.225 248.635 150.086C248.66 149.988 248.708 149.898 248.774 149.821C248.84 149.745 248.923 149.685 249.016 149.646C249.423 149.531 249.842 149.461 250.264 149.437C252.045 149.298 253.559 148.719 254.287 146.935C254.453 146.497 254.738 146.114 255.11 145.829C255.482 145.545 255.925 145.37 256.391 145.325C257.928 145.07 258.194 144.688 258.414 143.101C258.508 142.702 258.643 142.314 258.818 141.943H259.154C259.403 142.48 259.615 143.033 259.789 143.599C259.963 144.248 260.287 144.688 260.945 144.757C261.526 144.815 262.111 144.815 262.691 144.757C263.697 144.642 264.691 144.445 265.685 144.306C266.055 144.306 266.274 144.236 266.39 143.761C266.506 143.286 266.968 143.043 267.303 142.707C267.638 142.371 268.112 142.209 268.124 141.549C268.135 140.889 269.176 140.24 269.742 140.321C270.065 140.407 270.344 140.609 270.528 140.889C270.72 141.257 270.871 141.646 270.979 142.047C271.501 141.575 271.884 140.97 272.087 140.297C272.291 139.623 272.308 138.907 272.135 138.224C271.733 138.34 271.323 138.429 270.91 138.491C270.331 138.572 269.743 138.572 269.164 138.491C267.511 138.12 267.257 137.333 268.147 135.966C268.448 135.479 268.794 134.471 268.644 134.356C268.031 133.892 267.488 134.483 267.003 134.888C265.902 135.754 265.094 136.94 264.691 138.282C264.379 139.463 263.896 140.591 263.257 141.63C262.991 142.059 262.171 142.232 261.57 142.325C261.338 142.325 260.992 141.838 260.76 141.526C260.532 141.179 260.324 140.819 260.136 140.448L260.055 140.715L256.587 140.9C256.53 140.692 256.472 140.553 256.437 140.402C255.929 137.842 255.709 138.19 258.148 137.217C258.872 136.785 259.527 136.246 260.09 135.618L261.755 134.159C261.859 134.079 261.956 133.99 262.044 133.892C263.708 131.657 266.193 131.286 268.69 130.892C271.187 130.498 273.106 131.483 275.256 132.051C276.412 132.363 277.487 132.711 278.817 133.105C277.198 134.39 275.707 133.105 274.32 133.336C274.32 133.429 274.227 133.498 274.239 133.51C275.033 134.379 275.887 135.192 276.794 135.943C276.96 136.029 277.144 136.075 277.331 136.079C277.518 136.082 277.704 136.043 277.874 135.964C278.043 135.884 278.193 135.767 278.31 135.621C278.427 135.474 278.51 135.303 278.551 135.12C278.678 134.622 278.886 134.379 279.418 134.379C279.755 134.373 280.083 134.268 280.36 134.076C280.638 133.885 280.853 133.615 280.978 133.302C281.256 132.769 281.602 132.537 282.134 132.757C282.042 133.383 282.331 133.649 282.943 133.452C283.168 133.376 283.382 133.271 283.579 133.139C284.3 132.691 285.151 132.499 285.995 132.595C287.156 132.527 288.301 132.289 289.393 131.888C289.749 131.724 290.146 131.673 290.531 131.744C290.916 131.814 291.27 132.002 291.544 132.282C296.463 137.403 300.642 143.189 303.959 149.472C307.9 156.936 310.55 165.016 311.796 173.368C311.834 173.489 311.862 173.613 311.877 173.739Z" fill="white"/>
<path d="M193.357 144.445L192.802 147.642C193.185 147.659 193.567 147.576 193.908 147.399C194.249 147.222 194.537 146.958 194.744 146.634C196.05 144.781 197.402 142.974 198.743 141.143C198.951 140.865 199.16 140.587 199.344 140.286C199.705 139.562 200.306 138.986 201.044 138.658C201.783 138.33 202.613 138.271 203.39 138.491C204.28 138.63 204.916 138.827 204.847 139.916C204.847 140.066 205.251 140.367 205.494 140.39C206.581 140.518 207.124 140.39 208.962 139.58C209.033 139.743 209.084 139.914 209.112 140.089C209.141 140.328 209.141 140.569 209.112 140.807C208.879 141.714 208.986 142.674 209.412 143.506C209.838 144.339 210.554 144.986 211.424 145.325L211.771 145.51C210.461 146.78 208.736 147.533 206.916 147.63C205.658 147.622 204.422 147.95 203.333 148.58C202.421 149.01 201.478 149.37 200.512 149.657C200.174 149.864 199.867 150.118 199.599 150.41L199.714 150.653L203.309 150.329C203.171 151.209 203.309 151.731 204.234 151.812C204.581 151.812 204.893 152.31 205.332 152.669C203.772 152.97 203.02 154.673 201.032 154.267L202.57 152.831C201.841 152.032 201.668 151.962 200.697 152.565C199.726 153.167 198.894 153.885 197.992 154.557C197.761 154.731 197.541 155.009 197.287 155.055C195.68 155.345 194.906 156.665 193.888 157.696C193.666 158.014 193.379 158.282 193.046 158.481C192.714 158.681 192.343 158.808 191.958 158.854C191.642 158.852 191.338 158.968 191.103 159.179C190.827 159.426 190.647 159.762 190.594 160.129C190.652 160.796 190.503 161.466 190.168 162.046C189.833 162.626 189.328 163.089 188.721 163.372C187.622 163.971 186.574 164.66 185.589 165.434C185.168 165.861 184.885 166.406 184.778 166.997C184.671 167.588 184.744 168.198 184.987 168.747C185.173 169.133 185.269 169.557 185.269 169.986C185.269 170.415 185.173 170.839 184.987 171.225C184.918 171.422 184.444 171.585 184.155 171.596C183.866 171.608 183.67 171.295 183.612 171.086C183.358 170.09 183.196 169.059 182.941 168.063C182.805 167.72 182.63 167.394 182.421 167.09L182.225 167.171V168.33L182.04 168.469C181.789 168.173 181.523 167.891 181.242 167.623C180.871 167.258 180.451 166.946 179.994 166.696C179.763 166.582 179.498 166.564 179.253 166.644C179.009 166.724 178.806 166.897 178.688 167.125C178.202 167.774 177.636 168.364 177.139 168.932C176.728 168.435 176.292 167.959 175.832 167.507C175.73 167.428 175.613 167.371 175.487 167.341C175.361 167.311 175.231 167.308 175.104 167.333C174.143 167.475 173.272 167.975 172.665 168.735C172.016 169.515 171.296 170.232 170.515 170.878C170.158 171.131 169.906 171.508 169.81 171.936C169.714 172.364 169.78 172.812 169.995 173.195C170.108 173.518 170.14 173.864 170.087 174.202C169.905 175.133 170.082 176.099 170.581 176.905C171.081 177.711 171.867 178.297 172.781 178.546C173.263 178.711 173.788 178.699 174.262 178.513C174.736 178.326 175.129 177.977 175.37 177.527C175.578 177.098 175.717 176.635 175.913 176.195C175.953 176.066 176.019 175.946 176.107 175.845C176.196 175.743 176.304 175.661 176.427 175.604C176.549 175.548 176.681 175.517 176.816 175.515C176.951 175.513 177.084 175.539 177.208 175.592C177.366 175.754 177.485 175.95 177.555 176.165C177.625 176.38 177.645 176.608 177.613 176.832C177.441 177.587 177.209 178.327 176.919 179.044C176.665 179.855 176.861 180.203 177.717 180.411C178.343 180.539 178.976 180.631 179.612 180.689C179.786 180.686 179.958 180.721 180.115 180.793C180.273 180.865 180.413 180.972 180.524 181.106C180.635 181.239 180.714 181.396 180.757 181.564C180.799 181.733 180.803 181.909 180.768 182.079C180.691 183.014 180.718 183.954 180.849 184.882C180.996 185.434 181.292 185.935 181.705 186.33C181.848 186.425 182.013 186.483 182.184 186.499C182.356 186.515 182.528 186.489 182.687 186.423C182.965 186.235 183.284 186.12 183.617 186.088C183.95 186.056 184.286 186.107 184.594 186.237C184.848 186.323 185.107 186.393 185.369 186.446C186.525 186.724 186.814 186.527 187.577 185.682C188.099 185.212 188.687 184.822 189.322 184.523C189.42 184.5 189.522 184.501 189.619 184.528C189.716 184.554 189.805 184.604 189.877 184.674C189.927 184.756 189.954 184.85 189.954 184.946C189.954 185.042 189.927 185.136 189.877 185.218C189.253 185.786 189.6 186.064 190.155 186.295L191.496 186.863C190.64 185.461 191.785 184.975 192.293 184.141C192.502 184.262 192.699 184.402 192.883 184.558C193.255 184.964 193.716 185.279 194.229 185.48C194.741 185.681 195.293 185.762 195.842 185.716C197.368 185.698 198.839 186.285 199.934 187.349C201.433 188.65 203.233 189.554 205.17 189.979C205.591 190.044 205.992 190.204 206.342 190.447C206.693 190.69 206.984 191.009 207.193 191.381C207.552 191.983 208.003 192.539 208.349 193.106C208.511 193.251 208.629 193.438 208.689 193.647C208.75 193.856 208.75 194.077 208.691 194.286C208.632 194.495 208.516 194.683 208.355 194.829C208.195 194.974 207.996 195.072 207.783 195.11L206.881 195.551C207.124 196.014 207.39 196.153 207.852 195.898C208.167 195.702 208.516 195.568 208.881 195.504C209.161 195.536 209.422 195.663 209.621 195.863C209.621 195.863 209.505 196.199 209.459 196.385C209.413 196.57 209.32 196.813 209.367 196.848C209.532 196.952 209.726 197 209.921 196.987C210.081 196.962 210.227 196.884 210.338 196.767C210.493 196.584 210.686 196.437 210.903 196.336C211.121 196.235 211.358 196.183 211.598 196.183C211.837 196.183 212.074 196.235 212.292 196.336C212.509 196.437 212.702 196.584 212.858 196.767C212.962 196.848 213.158 196.917 213.158 196.998C213.285 198.319 214.187 197.786 214.742 197.566C215.02 197.459 215.317 197.413 215.614 197.431C215.911 197.449 216.201 197.53 216.464 197.67C217.851 198.261 219.296 198.748 220.73 199.246C220.947 199.301 221.14 199.426 221.28 199.602C221.42 199.777 221.498 199.994 221.504 200.219C221.66 201.336 221.565 202.474 221.227 203.549C220.889 204.625 220.316 205.612 219.551 206.439C219.439 206.592 219.293 206.715 219.123 206.798C218.487 207.064 218.429 207.586 218.406 208.176C218.418 209.65 218.349 211.124 218.198 212.59C218.017 213.504 217.701 214.386 217.262 215.208C216.95 215.879 216.638 216.574 215.563 216.366C215.089 216.296 214.476 216.76 214.002 217.084C213.16 217.556 212.382 218.136 211.69 218.81C211.325 219.413 211.082 220.082 210.973 220.779C210.706 222.055 210.358 223.312 209.933 224.544C209.621 225.25 208.777 225.702 208.245 226.328C207.844 226.875 207.253 227.253 206.588 227.388C205.924 227.523 205.233 227.405 204.65 227.057C204.35 227.926 204.928 228.471 205.263 229.061C205.806 230 205.795 229.988 204.916 230.625C204.038 231.262 203.379 231.876 202.604 232.513C202.335 232.773 202.139 233.099 202.038 233.46C201.936 233.82 201.932 234.201 202.026 234.563C202.022 235.209 201.933 235.852 201.76 236.475C201.675 236.8 201.629 237.134 201.622 237.471C201.703 238.143 201.911 238.78 201.992 239.452C202.13 240.552 202.211 241.664 202.315 242.776C202.315 243.193 202.477 243.471 202.986 243.494C203.106 243.527 203.218 243.585 203.314 243.665C203.409 243.745 203.487 243.845 203.541 243.957C203.841 244.583 204.084 245.232 204.35 245.846C204.178 245.98 203.982 246.078 203.772 246.135C203.563 246.192 203.343 246.206 203.128 246.177C202.913 246.148 202.705 246.076 202.518 245.965C202.331 245.855 202.167 245.708 202.038 245.533C201.64 244.769 200.979 244.176 200.177 243.865C198.878 243.297 197.833 242.27 197.241 240.981C196.535 239.579 195.749 238.363 195.969 236.648C196.093 236.115 196.018 235.554 195.758 235.072C195.498 234.59 195.072 234.22 194.559 234.031C194.374 233.973 194.212 233.556 194.189 233.289C194.062 232.2 194.004 231.112 193.9 230.023C193.692 227.706 193.403 225.389 193.264 223.073C193.172 221.347 193.264 219.598 193.264 217.86C193.264 217.084 193.264 216.308 193.264 215.543C193.183 214.539 192.802 213.582 192.171 212.797C191.54 212.012 190.689 211.436 189.727 211.142C189.194 211.048 188.715 210.759 188.384 210.331C188.053 209.902 187.893 209.365 187.935 208.825C187.954 208.348 187.836 207.876 187.594 207.465C187.352 207.054 186.997 206.722 186.571 206.508C185.419 205.862 184.543 204.816 184.109 203.566C183.961 203.192 183.732 202.856 183.439 202.582C183.129 202.291 182.902 201.924 182.781 201.517C182.659 201.11 182.647 200.678 182.745 200.265C182.759 199.698 182.717 199.132 182.618 198.574C182.539 198.193 182.508 197.804 182.525 197.415C182.671 196.306 183.066 195.245 183.681 194.311C184.366 193.306 184.932 192.226 185.369 191.091C185.61 190.482 185.641 189.81 185.459 189.181C185.277 188.552 184.892 188.001 184.363 187.616C184.187 187.52 183.992 187.464 183.792 187.454C183.592 187.444 183.392 187.48 183.207 187.558C182.84 187.783 182.413 187.89 181.983 187.865C181.554 187.84 181.142 187.684 180.803 187.419C179.39 186.506 178.229 185.251 177.428 183.77C177.29 183.55 177.082 183.383 176.838 183.295C176.489 183.166 176.123 183.088 175.751 183.064C175.256 183.031 174.773 182.901 174.328 182.68C173.884 182.46 173.488 182.153 173.162 181.778C172.767 181.356 172.279 181.032 171.737 180.831C171.196 180.63 170.615 180.558 170.041 180.62C169.884 180.649 169.724 180.649 169.567 180.62C167.255 180.017 165.152 178.791 163.487 177.075C163.24 176.749 163.064 176.373 162.973 175.974C162.881 175.575 162.875 175.16 162.955 174.758C164.509 162.929 168.87 151.644 175.671 141.85C177.219 139.638 178.977 137.576 180.63 135.444C180.884 135.12 181.15 134.969 181.508 135.236C181.756 135.385 182.031 135.483 182.317 135.522C182.603 135.562 182.894 135.544 183.173 135.468C184.525 135.294 185.924 135.363 187.242 135.085C188.85 134.742 190.421 134.246 191.935 133.603C192.496 133.287 192.976 132.845 193.339 132.313C193.702 131.78 193.937 131.171 194.027 130.533C194.131 130.174 194.247 129.815 194.362 129.456C194.755 128.147 194.755 128.158 196.108 128.46L198.871 129.085C198.096 129.352 197.298 129.618 196.559 129.931C196.096 130.104 196.038 130.406 196.362 130.799C196.905 131.46 197.414 132.155 197.98 132.78C198.131 132.954 198.535 133.105 198.686 133.012C199.842 132.34 200.997 132.618 202.153 132.537C201.855 133.068 201.494 133.562 201.078 134.008C200.649 134.338 200.145 134.557 199.61 134.645C198.235 134.923 196.836 135.108 195.449 135.329C195.383 135.799 195.146 136.229 194.784 136.535C194.421 136.841 193.958 137.001 193.484 136.985C191.689 137.272 190.006 138.045 188.617 139.221C188.119 139.494 187.739 139.942 187.55 140.478C187.36 141.014 187.374 141.601 187.588 142.128C187.727 142.568 187.866 143.113 188.571 142.765C188.687 142.765 188.918 142.835 189.08 142.916C189.738 143.252 190.386 143.634 191.056 143.97C191.727 144.306 192.212 144.676 192.894 144.422C192.968 144.389 193.048 144.375 193.128 144.379C193.208 144.383 193.287 144.405 193.357 144.445Z" fill="white"/>
<path d="M214.58 125.842C216.279 125.564 217.898 125.344 219.493 125.031C220.186 124.847 220.862 124.607 221.516 124.313C223.221 123.484 225.116 123.124 227.007 123.27C228.775 123.525 230.567 123.653 232.347 123.803C232.676 123.869 233.016 123.849 233.334 123.743C233.652 123.637 233.938 123.45 234.162 123.201C234.358 122.969 234.844 122.934 235.202 122.865C236.601 122.633 237.988 122.378 239.398 122.239C240.136 122.176 240.878 122.211 241.606 122.344C243.317 122.61 245.074 122.946 246.727 123.259C247.003 123.291 247.261 123.409 247.467 123.595C246.762 123.595 246.045 123.676 245.34 123.757C244.894 123.788 244.457 123.894 244.045 124.07C243.386 124.394 242.809 124.741 242.774 125.691C242.764 126.149 242.602 126.591 242.313 126.946C242.024 127.3 241.625 127.548 241.179 127.649C240.25 127.987 239.339 128.374 238.451 128.807C237.988 129.016 237.988 129.282 238.451 129.537C239.098 129.908 239.745 130.255 240.439 130.637C239.364 131.078 239.364 131.078 237.098 130.035L238.058 131.622C236.613 132.004 235.11 132.444 233.596 132.78C232.198 133.039 230.891 133.657 229.804 134.576C228.714 135.345 227.426 135.784 226.093 135.838C225.388 135.966 224.81 136.105 224.822 136.997C224.822 137.321 224.487 137.715 224.221 137.981C223.87 138.328 223.483 138.635 223.065 138.896C222.708 139.156 222.285 139.311 221.845 139.345C221.405 139.378 220.965 139.288 220.573 139.085C220.181 138.882 219.853 138.574 219.625 138.195C219.398 137.816 219.28 137.381 219.285 136.939C219.189 136.466 219.162 135.983 219.204 135.502C219.339 134.987 219.533 134.49 219.782 134.02C219.93 133.799 220.109 133.6 220.314 133.429C222.29 131.298 221.851 129.05 219.308 127.637C218.249 127.005 217.066 126.609 215.84 126.479C215.381 126.355 214.952 126.139 214.58 125.842Z" fill="white"/>
<path d="M201.506 127.742C202.084 126.745 202.72 126.444 203.726 126.908C204.208 127.159 204.737 127.31 205.28 127.349C205.822 127.389 206.367 127.318 206.881 127.139L207.043 127.313C206.893 127.521 206.777 127.857 206.581 127.938C206.095 128.135 205.552 128.17 205.055 128.344C204.941 128.393 204.839 128.466 204.755 128.558C204.672 128.65 204.608 128.759 204.569 128.877C204.569 129.004 204.801 129.305 204.986 129.352C206.974 129.942 208.974 130.51 210.962 131.054C211.055 131.102 211.136 131.171 211.198 131.256C211.26 131.34 211.302 131.438 211.32 131.541C211.314 131.805 211.267 132.067 211.182 132.317C210.869 133.742 211.262 134.263 212.719 134.286C212.734 134.534 212.657 134.778 212.504 134.973C212.35 135.167 212.131 135.298 211.887 135.34C210.939 135.607 210.002 135.885 209.066 136.197C208.638 136.336 208.176 136.487 208.315 137.124C208.315 137.24 208.199 137.414 208.095 137.518C207.687 137.796 207.201 137.935 206.708 137.917C206.215 137.898 205.741 137.722 205.356 137.414C205.185 137.229 205.068 137.002 205.016 136.755C204.964 136.509 204.98 136.254 205.062 136.016C205.144 135.778 205.289 135.567 205.481 135.405C205.673 135.243 205.905 135.137 206.153 135.097C206.72 134.935 207.309 134.9 207.876 134.749C208.142 134.682 208.375 134.522 208.534 134.298C208.534 134.17 208.338 133.834 208.165 133.661C206.701 132.336 204.808 131.587 202.836 131.552C201.749 131.483 200.662 131.367 199.576 131.251C199.113 131.251 198.524 131.251 198.489 130.545C198.463 130.398 198.47 130.247 198.51 130.103C198.55 129.959 198.623 129.826 198.722 129.714C198.821 129.603 198.944 129.515 199.082 129.458C199.22 129.402 199.369 129.377 199.518 129.386C200.238 129.354 200.956 129.281 201.668 129.166C201.98 129.166 202.443 128.888 202.489 128.668C202.593 128.159 202.269 127.823 201.703 127.811C201.656 127.846 201.61 127.799 201.506 127.742Z" fill="white"/>
<path d="M293.497 205.941C293.994 207.655 294.445 209.277 293.728 211.049C293.139 212.532 292.78 214.107 292.295 215.625C292.119 216.072 291.902 216.503 291.648 216.91C290.896 218.324 290.896 218.324 289.336 218.069C289.045 217.971 288.777 217.816 288.547 217.614C288.316 217.411 288.128 217.165 287.994 216.889C287.86 216.613 287.781 216.313 287.763 216.007C287.746 215.7 287.789 215.393 287.891 215.103C288.276 214.598 288.602 214.05 288.862 213.47C289.006 212.837 289.006 212.18 288.862 211.547C288.836 211.095 288.953 210.646 289.196 210.264C289.438 209.881 289.795 209.585 290.214 209.416C290.44 209.377 290.649 209.273 290.815 209.115C291.578 208.35 292.33 207.574 293.058 206.798C293.246 206.536 293.394 206.247 293.497 205.941Z" fill="white"/>
<path d="M220.614 122.344C219.278 123.42 217.684 124.127 215.99 124.394C213.648 124.788 211.413 125.664 209.424 126.965C208.777 127.371 208.141 127.718 207.656 126.711C207.575 126.525 207.216 126.433 206.962 126.398C206.346 126.333 205.735 126.221 205.136 126.062C205.314 125.896 205.516 125.759 205.737 125.656C206.234 125.494 206.766 125.413 207.286 125.263C207.806 125.112 208.511 125.008 208.742 124.232C208.811 124.071 208.916 123.928 209.048 123.814C209.18 123.699 209.337 123.617 209.505 123.571C210.546 123.34 211.621 123.189 212.684 123.027C213.335 123 213.982 122.907 214.615 122.749C215.788 122.294 217.047 122.104 218.302 122.193C218.684 122.193 219.088 122.1 219.458 122.089C219.828 122.077 220.209 122.089 220.614 122.089V122.344Z" fill="white"/>
<path d="M250.103 144.85C249.652 144.167 249.004 143.831 248.542 144.144C247.213 145.047 247.109 145.302 247.733 146.263L245.097 147.259C244.912 146.333 245.976 145.51 245.097 144.676C245.274 144.366 245.533 144.11 245.844 143.937C246.156 143.763 246.509 143.679 246.866 143.692C247.213 143.692 247.559 143.692 247.906 143.692C248.461 143.692 248.889 143.495 248.808 142.788C248.778 142.571 248.823 142.351 248.935 142.163C249.143 141.85 249.386 141.421 249.698 141.352C250.01 141.282 250.345 141.618 250.785 141.827C249.999 142.649 250.322 143.101 251.039 143.46C251.206 143.542 251.347 143.671 251.443 143.831C251.63 144.384 251.883 144.913 252.195 145.406C252.673 145.793 253.207 146.105 253.779 146.333C253.309 146.749 252.815 147.136 252.299 147.491C251.8 147.8 251.259 148.035 250.692 148.186C250.235 148.244 249.773 148.244 249.317 148.186V147.92L250.276 147.306C249.941 146.9 249.421 146.541 249.386 146.147C249.351 145.754 249.837 145.325 250.103 144.85Z" fill="white"/>
<path d="M238.173 135.664C238.508 135.525 238.844 135.352 239.19 135.247C240.254 134.958 241.329 134.68 242.392 134.413C242.912 134.286 243.548 134.286 243.687 134.854C243.689 135.047 243.645 135.239 243.559 135.412C243.472 135.585 243.346 135.735 243.19 135.85C242.539 136.252 241.849 136.59 241.132 136.858C240.822 137.018 240.464 137.063 240.124 136.984C239.783 136.906 239.481 136.709 239.271 136.429C239.052 136.163 238.601 136.093 238.242 135.931L238.173 135.664Z" fill="white"/>
<path d="M207.644 150.63C208.481 149.415 209.672 148.488 211.054 147.978L210.372 148.58C210.673 148.731 210.973 148.777 211.124 148.951C211.274 149.124 211.91 149.773 211.829 150.04C211.763 150.311 211.595 150.546 211.36 150.697C211.126 150.848 210.843 150.903 210.569 150.85C209.633 150.7 208.685 150.7 207.644 150.63Z" fill="white"/>
<path d="M278.082 227.913L273.345 231.641L342.545 319.917L347.281 316.189L278.082 227.913Z" fill="#06B461"/>
<path d="M276.909 248.533L276.793 249.413C267.177 255.203 256.405 258.794 245.244 259.931C234.083 261.068 222.81 259.722 212.228 255.99C201.646 252.257 192.017 246.23 184.027 238.339C176.038 230.447 169.885 220.886 166.008 210.337C162.132 199.788 160.626 188.512 161.6 177.313C162.573 166.114 166.002 155.269 171.64 145.55C177.279 135.832 184.989 127.481 194.22 121.093C203.451 114.705 213.975 110.437 225.041 108.594C219.642 113.041 214.693 118.012 210.268 123.433C209.413 124.498 208.523 125.599 207.679 126.745C206.997 127.649 206.315 128.576 205.656 129.537C205.17 130.244 204.673 130.985 204.188 131.738C202.392 134.494 200.77 137.361 199.333 140.321C196.579 145.88 194.633 151.805 193.553 157.916C191.984 167.231 192.779 176.791 195.865 185.716C197.407 190.25 199.409 194.613 201.841 198.736C205.534 205.076 209.79 211.07 214.557 216.644C243.317 250.213 276.909 248.533 276.909 248.533Z" fill="url(#paint1_linear_2_56)"/>
<path d="M413.393 333.254L332.256 332.605C330.942 332.605 329.667 332.157 328.642 331.333C327.616 330.51 326.902 329.361 326.615 328.076L311.877 264.147C311.664 263.281 311.655 262.377 311.848 261.506C312.042 260.635 312.434 259.821 312.994 259.127C313.553 258.433 314.265 257.878 315.074 257.505C315.883 257.132 316.766 256.952 317.656 256.977L398.804 257.626C400.128 257.637 401.409 258.094 402.441 258.924C403.473 259.754 404.195 260.909 404.492 262.201L419.207 326.037C419.411 326.908 419.415 327.815 419.216 328.687C419.018 329.56 418.623 330.375 418.062 331.071C417.501 331.768 416.789 332.326 415.979 332.704C415.17 333.083 414.285 333.271 413.393 333.254Z" fill="#06B461"/>
<path d="M408.572 326.397L335.377 325.806C334.213 325.81 333.081 325.427 332.158 324.716C331.235 324.006 330.574 323.007 330.279 321.879L316.882 266.441C316.714 265.679 316.722 264.888 316.906 264.13C317.09 263.371 317.445 262.665 317.944 262.065C318.443 261.466 319.073 260.989 319.784 260.671C320.496 260.353 321.271 260.203 322.049 260.232L395.29 260.823C396.454 260.815 397.587 261.197 398.508 261.909C399.43 262.62 400.088 263.62 400.377 264.75L413.693 320.176C413.858 320.935 413.848 321.721 413.666 322.476C413.483 323.23 413.132 323.933 412.639 324.532C412.146 325.131 411.524 325.61 410.82 325.933C410.115 326.256 409.347 326.414 408.572 326.397Z" fill="url(#paint2_linear_2_56)"/>
<path d="M333.358 330.137L439.217 330.988C440.164 330.996 441.069 331.38 441.734 332.057C442.398 332.734 442.767 333.647 442.76 334.596C442.752 335.546 442.369 336.453 441.693 337.119C441.018 337.785 440.107 338.154 439.159 338.147L333.3 337.295C332.362 337.287 331.466 336.907 330.808 336.237C330.15 335.567 329.784 334.662 329.792 333.722L329.792 333.629C329.8 332.689 330.18 331.791 330.848 331.132C331.517 330.472 332.42 330.106 333.358 330.114L333.358 330.137Z" fill="#06B461"/>
<path d="M464.152 332.141L379.05 331.288C377.269 331.271 375.811 332.703 375.793 334.488L375.786 335.194C375.768 336.979 377.198 338.441 378.979 338.458L464.08 339.311C465.861 339.329 467.32 337.897 467.338 336.112L467.345 335.405C467.362 333.62 465.933 332.159 464.152 332.141Z" fill="#06B461"/>
<path d="M464.152 332.141L379.05 331.288C377.269 331.271 375.811 332.703 375.793 334.488L375.786 335.194C375.768 336.979 377.198 338.441 378.979 338.458L464.08 339.311C465.861 339.329 467.32 337.897 467.338 336.112L467.345 335.405C467.362 333.62 465.933 332.159 464.152 332.141Z" fill="url(#paint3_linear_2_56)"/>
<path d="M365.432 278.326L370.738 301.979H370.819L375.859 295.11L371.64 296.06H371.582L367.536 278.024L365.432 278.326Z" fill="white"/>
<path d="M368.738 302.523L363.432 278.881H363.363L358.312 285.762L362.542 284.812C362.551 284.807 362.561 284.804 362.571 284.804C362.581 284.804 362.591 284.807 362.6 284.812L366.646 302.859L368.738 302.523Z" fill="white"/>
<path d="M429.819 125.344C427.831 132.977 418.802 131.576 418.802 131.576C418.802 131.576 366.403 132.56 365.42 131.576C364.623 130.765 365.143 127.672 365.34 126.572C365.34 126.328 365.42 126.189 365.42 126.189H380.39C380.39 126.189 387.453 122.506 375.87 105.826C366.149 91.7868 402.862 91.1613 414.849 91.3118C417.161 91.3118 418.525 91.3929 418.525 91.3929C418.525 91.3929 431.784 117.699 429.819 125.344Z" fill="#06B461"/>
<path d="M423.6 119.969C421.635 127.614 412.584 126.189 412.584 126.189C412.584 126.189 379.384 126.826 365.34 126.572C365.34 126.328 365.42 126.189 365.42 126.189H380.39C380.39 126.189 387.453 122.506 375.87 105.826C366.149 91.7868 402.862 91.1613 414.849 91.3118C418.606 99.3855 425.022 114.49 423.6 119.969Z" fill="#06B461"/>
<path d="M425.738 121.093C423.773 128.738 412.584 126.189 412.584 126.189C412.584 126.189 379.384 126.826 365.34 126.572C365.34 126.328 365.42 126.189 365.42 126.189H380.39C380.39 126.189 387.453 122.506 375.87 105.826C366.149 91.7868 402.862 91.1613 414.849 91.3118C418.606 99.3855 427.172 115.614 425.738 121.093Z" fill="url(#paint4_linear_2_56)"/>
<path d="M448.175 15.8229H336.233C330.417 15.8229 325.702 20.5474 325.702 26.3753V94.7057C325.702 100.534 330.417 105.258 336.233 105.258H448.175C453.991 105.258 458.706 100.534 458.706 94.7057V26.3753C458.706 20.5474 453.991 15.8229 448.175 15.8229Z" fill="#06B461"/>
<path d="M448.175 15.8229H336.233C330.417 15.8229 325.702 20.5474 325.702 26.3753V94.7057C325.702 100.534 330.417 105.258 336.233 105.258H448.175C453.991 105.258 458.706 100.534 458.706 94.7057V26.3753C458.706 20.5474 453.991 15.8229 448.175 15.8229Z" fill="url(#paint5_linear_2_56)"/>
<path d="M445.355 15.8229H333.412C327.596 15.8229 322.881 20.5474 322.881 26.3753V94.7057C322.881 100.534 327.596 105.258 333.412 105.258H445.355C451.171 105.258 455.886 100.534 455.886 94.7057V26.3753C455.886 20.5474 451.171 15.8229 445.355 15.8229Z" fill="#06B461"/>
<path d="M445.355 15.8229H333.412C327.596 15.8229 322.881 20.5474 322.881 26.3753V94.7057C322.881 100.534 327.596 105.258 333.412 105.258H445.355C451.171 105.258 455.886 100.534 455.886 94.7057V26.3753C455.886 20.5474 451.171 15.8229 445.355 15.8229Z" fill="url(#paint6_linear_2_56)"/>
<path d="M455.793 85.8213L455.874 94.7057C455.874 97.5044 454.764 100.188 452.79 102.167C450.815 104.146 448.136 105.258 445.343 105.258H333.401C330.608 105.258 327.929 104.146 325.954 102.167C323.979 100.188 322.87 97.5044 322.87 94.7057L322.789 85.8213H455.793Z" fill="#06B461"/>
<path d="M417.624 126.595H365.421V131.564H417.624V126.595Z" fill="url(#paint7_linear_2_56)"/>
<path d="M425.738 121.093L426.235 130.012C424.98 130.843 423.57 131.411 422.09 131.679C420.609 131.948 419.09 131.913 417.624 131.576V126.595C417.624 126.595 425.033 128.738 425.738 121.093Z" fill="url(#paint8_linear_2_56)"/>
<path opacity="0.18" d="M381.072 37.3333C376.936 37.3678 372.903 38.6307 369.483 40.9623C366.064 43.2939 363.411 46.5893 361.86 50.4319C360.31 54.2745 359.931 58.4915 360.772 62.5496C361.614 66.6078 363.637 70.3247 366.587 73.2303C369.537 76.1359 373.28 78.0996 377.344 78.8731C381.408 79.6466 385.609 79.1951 389.416 77.5758C393.224 75.9564 396.467 73.2419 398.735 69.7756C401.002 66.3093 402.193 62.2469 402.157 58.1023C402.105 52.5478 399.856 47.2409 395.902 43.3469C391.949 39.4529 386.615 37.2901 381.072 37.3333ZM381.419 75.6743C378.053 75.7062 374.754 74.7372 371.938 72.8899C369.122 71.0425 366.916 68.3998 365.599 65.2959C364.282 62.1921 363.913 58.7666 364.539 55.4527C365.165 52.1388 366.758 49.0854 369.116 46.6787C371.474 44.272 374.492 42.6202 377.787 41.9321C381.082 41.2441 384.506 41.5507 387.627 42.8132C390.748 44.0757 393.426 46.2374 395.321 49.0249C397.216 51.8124 398.243 55.1003 398.273 58.4729C398.307 62.9913 396.552 67.3389 393.393 70.5632C390.234 73.7874 385.928 75.6254 381.419 75.6743Z" fill="white"/>
<path d="M382.875 48.7892L383.049 67.9481L388.124 63.4537L384.679 63.4769L384.54 48.8819L382.875 48.7892Z" fill="white"/>
<path d="M381.419 67.9713L381.246 48.8008L376.171 53.3067L379.616 53.272L379.743 67.867L381.419 67.9713Z" fill="white"/>
</g>
<defs>
<linearGradient id="paint0_linear_2_56" x1="65.4331" y1="175.759" x2="71.8912" y2="238.255" gradientUnits="userSpaceOnUse">
<stop stop-opacity="0"/>
<stop offset="0.99"/>
</linearGradient>
<linearGradient id="paint1_linear_2_56" x1="25834.2" y1="23084.8" x2="9886.44" y2="35674.8" gradientUnits="userSpaceOnUse">
<stop stop-opacity="0"/>
<stop offset="0.99"/>
</linearGradient>
<linearGradient id="paint2_linear_2_56" x1="29181.5" y1="10918.2" x2="30968.3" y2="29311.1" gradientUnits="userSpaceOnUse">
<stop stop-opacity="0"/>
<stop offset="0.99"/>
</linearGradient>
<linearGradient id="paint3_linear_2_56" x1="33429.5" y1="2488.84" x2="33424.2" y2="3072.21" gradientUnits="userSpaceOnUse">
<stop stop-opacity="0"/>
<stop offset="0.99"/>
</linearGradient>
<linearGradient id="paint4_linear_2_56" x1="21783.2" y1="4292.75" x2="21491" y2="2829.07" gradientUnits="userSpaceOnUse">
<stop stop-opacity="0"/>
<stop offset="0.99"/>
</linearGradient>
<linearGradient id="paint5_linear_2_56" x1="60208.2" y1="4324.81" x2="35520.5" y2="5675.54" gradientUnits="userSpaceOnUse">
<stop stop-opacity="0"/>
<stop offset="0.99"/>
</linearGradient>
<linearGradient id="paint6_linear_2_56" x1="382.205" y1="0.55598" x2="403.758" y2="179.972" gradientUnits="userSpaceOnUse">
<stop offset="0.02" stop-color="white" stop-opacity="0"/>
<stop offset="0.32" stop-color="white" stop-opacity="0.39"/>
<stop offset="0.68" stop-color="white" stop-opacity="0.68"/>
<stop offset="1" stop-color="white"/>
</linearGradient>
<linearGradient id="paint7_linear_2_56" x1="17947.9" y1="676.842" x2="18114.5" y2="1331.68" gradientUnits="userSpaceOnUse">
<stop stop-opacity="0"/>
<stop offset="0.99"/>
</linearGradient>
<linearGradient id="paint8_linear_2_56" x1="3682.23" y1="1373.4" x2="3468.51" y2="1267.84" gradientUnits="userSpaceOnUse">
<stop stop-opacity="0"/>
<stop offset="0.99"/>
</linearGradient>
<clipPath id="clip0_2_56">
<rect width="468" height="363" fill="white"/>
</clipPath>
</defs>
</svg>
