<svg width="539" height="370" viewBox="0 0 539 370" fill="none" xmlns="http://www.w3.org/2000/svg">
<g clip-path="url(#clip0_4_6)">
<path opacity="0.18" d="M481.02 74.5106C486.169 103.768 456.731 132.62 465.826 160.878C471.061 177.201 486.765 187.38 500.303 197.879C521.817 214.528 541.67 238.719 538.699 265.723C535.486 294.85 507.69 315.443 480.064 325.373C376.438 362.59 21.5864 427.966 0.556172 262.942C-3.44834 231.399 14.7094 200.144 35.0853 175.699C51.2931 156.262 141.571 68.9021 174.569 52.5923C321.559 -20.0836 465.878 -11.6088 481.02 74.5106Z" fill="#06B461"/>
<path d="M330.392 327.672H166.802V336.976H330.392V327.672Z" fill="#06B461"/>
<path d="M305.403 253.213H194.638V327.671H305.403V253.213Z" fill="#06B461"/>
<path d="M305.403 253.213H194.638V327.671H305.403V253.213Z" fill="#06B461"/>
<path d="M305.403 253.213H194.638V327.671H305.403V253.213Z" fill="url(#paint0_linear_4_6)"/>
<path d="M452.137 42.557V237.556C452.137 243.145 451.034 248.68 448.889 253.843C446.745 259.007 443.602 263.698 439.64 267.649C435.678 271.6 430.975 274.733 425.799 276.869C420.623 279.006 415.076 280.104 409.475 280.1H84.8866C73.5787 280.1 62.734 275.618 54.7381 267.639C46.7423 259.661 42.2502 248.84 42.2502 237.556V42.557C42.2494 36.9692 43.3515 31.4359 45.4937 26.2731C47.6359 21.1104 50.7763 16.4192 54.7354 12.4674C58.6946 8.5156 63.395 5.38064 68.5683 3.24149C73.7417 1.10234 79.2866 0.000889421 84.8866 3.20674e-05H409.436C415.039 -0.00683104 420.588 1.08801 425.767 3.22199C430.946 5.35597 435.652 8.48727 439.618 12.437C443.583 16.3867 446.73 21.0773 448.878 26.241C451.026 31.4046 452.134 36.94 452.137 42.5309V42.557Z" fill="#06B461"/>
<path d="M452.137 42.557V227.332H42.296V42.557C42.2952 36.9692 43.3973 31.4359 45.5395 26.2731C47.6817 21.1104 50.8221 16.4192 54.7812 12.4674C58.7403 8.5156 63.4408 5.38064 68.6141 3.24149C73.7875 1.10234 79.3324 0.000889421 84.9323 3.20674e-05H409.435C415.039 -0.00683104 420.588 1.08801 425.767 3.22199C430.946 5.35597 435.652 8.48727 439.618 12.437C443.583 16.3867 446.73 21.0773 448.878 26.241C451.026 31.4046 452.134 36.94 452.137 42.5309V42.557Z" fill="url(#paint1_linear_4_6)"/>
<path d="M381.345 38.5546H91.7767V95.5344H381.345V38.5546Z" fill="url(#paint2_linear_4_6)"/>
<path d="M223.311 102.808H91.7767V217.571H223.311V102.808Z" fill="url(#paint3_linear_4_6)"/>
<path d="M379.009 102.808H232.602V141.134H379.009V102.808Z" fill="url(#paint4_linear_4_6)"/>
<path d="M379.009 148.407H232.602V186.734H379.009V148.407Z" fill="url(#paint5_linear_4_6)"/>
<path d="M379.009 194.007H232.602V217.571H379.009V194.007Z" fill="url(#paint6_linear_4_6)"/>
<path d="M316.036 354.774H322.285L303.028 113.046L297.747 114.462L298.945 130.256L279.969 131.451L278.51 113.046L273.23 114.462L291.499 354.774H297.747L295.569 327.352L313.89 326.229L313.615 321.887L295.222 323.016L293.658 303.429L312.463 302.241L312.195 297.912L293.318 299.074L291.76 279.447L310.199 278.279L316.036 354.774ZM280.316 135.76L299.292 134.553L300.784 154.179L281.893 155.394L280.316 135.76ZM282.22 159.696L301.098 158.488L302.59 178.2L283.804 179.375L282.22 159.696ZM284.137 183.678L302.917 182.476L304.513 203.428L285.767 204.565L284.137 183.678ZM286.14 208.88L304.84 207.764L306.228 226.045L287.599 227.214L286.14 208.88ZM287.939 231.55L306.555 230.368L308.047 250.02L289.503 251.189L287.939 231.55ZM291.414 275.145L289.843 255.492L308.38 254.31L309.872 273.976L291.414 275.145Z" fill="#06B461"/>
<path d="M156.916 128.396V113.046H153.062V128.396H134.315V133.149H153.062V345.666H156.916V157.894L179.765 133.149H197.262V128.369L156.916 128.396ZM156.916 151.176V133.149H174.295L156.916 151.176Z" fill="#06B461"/>
<path d="M347.274 128.396V113.046H343.42V128.396H306.391V133.149H322.468L343.407 155.805V345.666H347.274V133.149H369.351V128.369L347.274 128.396ZM343.42 149.204L327.932 133.149H343.407L343.42 149.204Z" fill="#06B461"/>
<g opacity="0.61">
<path opacity="0.61" d="M316.036 354.774H322.285L303.028 113.046L297.748 114.462L298.945 130.256L279.969 131.451L278.51 113.046L273.23 114.462L291.499 354.774H297.748L295.569 327.352L313.89 326.229L313.615 321.887L295.222 323.016L293.658 303.429L312.464 302.241L312.195 297.912L293.318 299.074L291.76 279.447L310.2 278.279L316.036 354.774ZM280.316 135.76L299.292 134.553L300.784 154.179L281.893 155.394L280.316 135.76ZM282.22 159.696L301.098 158.488L302.59 178.2L283.804 179.375L282.22 159.696ZM284.137 183.678L302.917 182.476L304.513 203.428L285.767 204.565L284.137 183.678ZM286.14 208.88L304.841 207.764L306.228 226.045L287.599 227.214L286.14 208.88ZM287.939 231.55L306.555 230.368L308.047 250.02L289.503 251.189L287.939 231.55ZM291.414 275.145L289.843 255.492L308.381 254.31L309.872 273.976L291.414 275.145Z" fill="url(#paint7_linear_4_6)"/>
<path opacity="0.61" d="M156.916 128.396V113.046H153.062V128.396H134.315V133.149H153.062V345.666H156.916V157.894L179.765 133.149H197.262V128.369L156.916 128.396ZM156.916 151.176V133.149H174.295L156.916 151.176Z" fill="url(#paint8_linear_4_6)"/>
<path opacity="0.61" d="M347.274 128.396V113.046H343.42V128.396H306.391V133.149H322.468L343.407 155.805V345.666H347.274V133.149H369.351V128.369L347.274 128.396ZM343.42 149.204L327.932 133.149H343.407L343.42 149.204Z" fill="url(#paint9_linear_4_6)"/>
</g>
<path d="M306.967 177.312L306.522 181.295H297.303C297.303 181.295 296.55 178.997 298.232 178.422C299.154 178.097 300.105 177.859 301.072 177.71L306.967 177.312Z" fill="#06B461"/>
<path d="M294.11 94.8227C293.685 98.3871 293.906 101.999 294.764 105.485C295.278 106.146 295.959 106.659 296.738 106.97C297.517 107.281 298.364 107.379 299.194 107.254V109.905H303.604L305.488 96.6313C305.488 96.6313 298.546 87.7908 294.11 94.8227Z" fill="url(#paint10_linear_4_6)"/>
<path d="M297.218 96.1481C297.912 97.535 298.355 99.0337 298.526 100.575C298.526 100.575 299.41 98.8055 299.835 99.6869C300.26 100.568 298.952 102.344 298.952 102.344L300.26 104.551H304.742C304.742 104.551 306.961 94.8684 305.717 93.5365C304.474 92.2045 303.637 92.2306 303.637 92.2306C303.637 92.2306 303.637 90.9248 300.973 90.9248C298.31 90.9248 294.77 90.9248 293.442 93.1382C292.114 95.3516 291.669 94.444 291.669 94.444C291.669 94.444 292.421 96.0828 293.573 95.6846C293.848 95.6193 296.773 94.8227 297.218 96.1481Z" fill="#333333"/>
<path d="M299.207 109.905H306.659C306.659 109.905 309.807 110.558 310.245 118.086C310.513 123.23 310.513 128.384 310.245 133.527V145.868L306.659 144.673L293.357 147.637L292.048 129.545C290.668 129.376 289.341 128.911 288.16 128.18C286.978 127.45 285.969 126.472 285.204 125.314C284.235 123.865 283.626 122.207 283.426 120.477C283.226 118.747 283.44 116.994 284.052 115.363L293.311 120.228L293.802 117.616C294.309 114.786 295.897 112.263 298.232 110.578L299.207 109.905Z" fill="#06B461"/>
<path d="M285.289 112.915L283.077 105.837L291.898 104.505L294.868 114.149L293.311 120.228L288.024 117.479L285.289 112.915Z" fill="#FCFDFF"/>
<path d="M283.516 116.872C283.666 115.391 284.288 113.998 285.289 112.895L285.734 113.333H288.554L288.999 115.063L287.978 116.519C287.364 117.035 286.604 117.346 285.804 117.41C285.004 117.473 284.203 117.285 283.516 116.872Z" fill="url(#paint11_linear_4_6)"/>
<path d="M288.024 117.479L290.124 123.042L293.311 120.228L288.024 117.479Z" fill="url(#paint12_linear_4_6)"/>
<path opacity="0.61" d="M291.898 129.231C291.898 129.231 299.023 126.574 299.023 122.154L300.803 142.466L293.259 144.248L291.898 129.231Z" fill="url(#paint13_linear_4_6)"/>
<path d="M293.226 144.229L291.898 166.258L293.671 177.756H298.991L299.874 158.782L302.976 150.817L300.764 177.756L306.967 178.2L310.023 142.459L306.522 141.134L293.226 144.229Z" fill="#333333"/>
<path d="M298.722 177.756V182.163L289.372 178.833C289.372 178.833 289.372 176.398 291.185 176.398C292.166 176.392 293.145 176.482 294.109 176.666L298.722 177.756Z" fill="#06B461"/>
<path d="M176.663 352.476L177.121 356.445H186.347C186.347 356.445 187.1 354.147 185.412 353.573C184.492 353.247 183.543 353.011 182.578 352.867L176.663 352.476Z" fill="#06B461"/>
<path d="M183.069 269.138C184.672 272.325 185.694 275.772 186.086 279.317C185.556 281.837 182.448 282.412 182.448 282.412L183.292 284.932L178.862 286.479L172.829 274.537C172.829 274.537 176.598 263.875 183.069 269.138Z" fill="url(#paint14_linear_4_6)"/>
<path d="M180.543 271.397C180.288 272.859 180.288 274.355 180.543 275.817C180.543 275.817 179.124 274.446 178.993 275.419C178.862 276.392 180.674 277.632 180.674 277.632L180.144 280.152L176.114 281.523C176.114 281.523 170.879 273.036 171.677 271.397C172.475 269.758 172.875 269.582 172.875 269.582C172.875 269.582 172.43 268.341 174.955 267.46C177.481 266.578 180.844 265.501 182.807 267.153C184.77 268.805 184.888 267.806 184.888 267.806C184.888 267.806 184.888 269.575 183.468 269.621C183.606 269.804 180.543 269.98 180.543 271.397Z" fill="#333333"/>
<path d="M184.666 284.977H177.219C177.219 284.977 174.072 285.63 173.627 293.158C173.359 298.3 173.359 303.452 173.627 308.593V320.933L177.219 319.739L190.515 322.703L191.824 304.617C193.2 304.391 194.51 303.871 195.666 303.092C196.821 302.313 197.794 301.295 198.518 300.105C199.483 298.654 200.091 296.995 200.291 295.265C200.491 293.534 200.278 291.781 199.67 290.149L190.404 295.013L189.913 292.401C189.405 289.573 187.817 287.053 185.484 285.369L184.666 284.977Z" fill="#06B461"/>
<path d="M198.368 288.027L200.579 280.995L191.713 279.669L188.788 289.313L190.385 295.104L195.704 292.453L198.368 288.027Z" fill="#FCFDFF"/>
<path d="M200.134 292.055C199.99 290.571 199.368 289.174 198.361 288.072L197.923 288.516H195.129L194.684 290.24L195.704 291.696C196.315 292.206 197.069 292.514 197.862 292.578C198.655 292.643 199.449 292.46 200.134 292.055Z" fill="url(#paint15_linear_4_6)"/>
<path opacity="0.61" d="M191.713 304.526C191.713 304.526 184.62 301.875 184.62 297.448L185.196 321.423L190.385 322.572L191.713 304.526Z" fill="url(#paint16_linear_4_6)"/>
<path d="M190.385 319.386L191.713 341.415L189.985 352.913H184.666L183.782 333.94L180.674 325.974L182.893 352.913L176.689 353.357L173.588 317.617L177.128 316.291L190.385 319.386Z" fill="#333333"/>
<path d="M184.934 352.913V356.015L194.638 355.571C194.638 355.571 194.199 352.476 192.426 352.476C191.468 352.504 190.52 352.279 189.678 351.823L184.934 352.913Z" fill="#06B461"/>
<path d="M341.719 95.2797H319.066C315.974 95.278 313.01 94.0514 310.825 91.8696C308.64 89.6879 307.412 86.7295 307.412 83.6448V78.6892C307.412 75.6052 308.64 72.6474 310.825 70.4667C313.011 68.2859 315.975 67.0608 319.066 67.0608H341.719C343.249 67.0599 344.765 67.3599 346.179 67.9435C347.593 68.527 348.878 69.3829 349.961 70.4621C351.044 71.5412 351.903 72.8227 352.489 74.2332C353.076 75.6437 353.378 77.1556 353.379 78.6827V83.6383C353.379 85.1662 353.077 86.6792 352.491 88.0908C351.905 89.5024 351.046 90.785 349.964 91.8654C348.881 92.9458 347.595 93.8029 346.181 94.3876C344.766 94.9723 343.25 95.2732 341.719 95.2732V95.2797Z" fill="white"/>
<path d="M310.023 101.411C310.023 101.411 319.288 101.855 321.506 95.2209H328.377C328.377 95.2209 323.77 103.624 310.023 101.411Z" fill="white"/>
<path opacity="0.15" d="M315.257 71.4222H346.377C346.589 71.4222 346.792 71.5062 346.942 71.6555C347.092 71.8049 347.176 72.0075 347.176 72.2188V72.8717C347.176 73.083 347.092 73.2856 346.942 73.4349C346.792 73.5843 346.589 73.6683 346.377 73.6683H315.257C315.153 73.6683 315.049 73.6476 314.952 73.6076C314.855 73.5676 314.767 73.5089 314.693 73.4349C314.619 73.361 314.56 73.2732 314.52 73.1765C314.48 73.0799 314.459 72.9763 314.459 72.8717V72.2188C314.459 72.1142 314.48 72.0106 314.52 71.914C314.56 71.8173 314.619 71.7295 314.693 71.6555C314.767 71.5816 314.855 71.5229 314.952 71.4829C315.049 71.4428 315.153 71.4222 315.257 71.4222Z" fill="#020202"/>
<path opacity="0.15" d="M315.257 76.7305H346.377C346.589 76.7305 346.792 76.8144 346.942 76.9638C347.092 77.1132 347.176 77.3158 347.176 77.527V78.1799C347.176 78.3912 347.092 78.5938 346.942 78.7432C346.792 78.8926 346.589 78.9765 346.377 78.9765H315.257C315.153 78.9765 315.049 78.9559 314.952 78.9159C314.855 78.8758 314.767 78.8171 314.693 78.7432C314.619 78.6692 314.56 78.5814 314.52 78.4848C314.48 78.3881 314.459 78.2845 314.459 78.1799V77.527C314.459 77.4224 314.48 77.3188 314.52 77.2222C314.56 77.1256 314.619 77.0377 314.693 76.9638C314.767 76.8898 314.855 76.8311 314.952 76.7911C315.049 76.7511 315.153 76.7305 315.257 76.7305Z" fill="#020202"/>
<path opacity="0.15" d="M315.257 81.9929H346.377C346.589 81.9929 346.792 82.0768 346.942 82.2262C347.092 82.3756 347.176 82.5782 347.176 82.7895V83.4424C347.176 83.547 347.155 83.6506 347.115 83.7472C347.075 83.8439 347.016 83.9317 346.942 84.0056C346.868 84.0796 346.78 84.1383 346.683 84.1783C346.586 84.2184 346.482 84.239 346.377 84.239H315.257C315.153 84.239 315.049 84.2184 314.952 84.1783C314.855 84.1383 314.767 84.0796 314.693 84.0056C314.619 83.9317 314.56 83.8439 314.52 83.7472C314.48 83.6506 314.459 83.547 314.459 83.4424V82.7895C314.459 82.6849 314.48 82.5813 314.52 82.4846C314.56 82.388 314.619 82.3002 314.693 82.2262C314.767 82.1523 314.855 82.0936 314.952 82.0536C315.049 82.0135 315.153 81.9929 315.257 81.9929Z" fill="#020202"/>
<path opacity="0.15" d="M315.257 87.3011H332.224C332.435 87.3029 332.636 87.3875 332.784 87.5367C332.933 87.6859 333.016 87.8876 333.016 88.0977V88.7506C333.016 88.9607 332.933 89.1624 332.784 89.3116C332.636 89.4608 332.435 89.5454 332.224 89.5472H315.257C315.153 89.5472 315.049 89.5266 314.952 89.4865C314.855 89.4465 314.767 89.3878 314.693 89.3139C314.619 89.2399 314.56 89.1521 314.52 89.0554C314.48 88.9588 314.459 88.8552 314.459 88.7506V88.0977C314.459 87.9931 314.48 87.8895 314.52 87.7929C314.56 87.6962 314.619 87.6084 314.693 87.5345C314.767 87.4605 314.855 87.4018 314.952 87.3618C315.049 87.3217 315.153 87.3011 315.257 87.3011Z" fill="#020202"/>
<path d="M135.198 271.704H157.851C160.899 271.696 163.821 270.496 165.993 268.363C168.164 266.229 169.411 263.331 169.466 260.291V255.12C169.466 252.036 168.238 249.078 166.052 246.897C163.867 244.716 160.903 243.491 157.812 243.491H135.198C132.106 243.491 129.14 244.717 126.953 246.899C124.766 249.081 123.538 252.041 123.538 255.126V260.297C123.598 263.343 124.853 266.244 127.033 268.377C129.213 270.51 132.145 271.704 135.198 271.704Z" fill="white"/>
<path d="M166.802 277.985C166.802 277.985 157.537 278.429 155.319 271.795H148.527C148.527 271.795 152.937 280.1 166.802 277.985Z" fill="white"/>
<path opacity="0.15" d="M161.574 250.066H130.454C130.243 250.066 130.04 249.982 129.89 249.833C129.74 249.683 129.656 249.481 129.656 249.27V248.649C129.656 248.438 129.74 248.235 129.89 248.086C130.04 247.937 130.243 247.853 130.454 247.853H161.574C161.786 247.853 161.989 247.937 162.139 248.086C162.289 248.235 162.373 248.438 162.373 248.649V249.27C162.373 249.481 162.289 249.683 162.139 249.833C161.989 249.982 161.786 250.066 161.574 250.066Z" fill="#020202"/>
<path opacity="0.15" d="M161.574 255.427H130.454C130.243 255.427 130.04 255.343 129.89 255.193C129.74 255.044 129.656 254.841 129.656 254.63V253.984C129.658 253.773 129.743 253.573 129.892 253.425C130.042 253.277 130.244 253.194 130.454 253.194H161.574C161.785 253.194 161.987 253.277 162.137 253.425C162.286 253.573 162.371 253.773 162.373 253.984V254.637C162.373 254.848 162.289 255.05 162.139 255.2C161.989 255.349 161.786 255.433 161.574 255.433V255.427Z" fill="#020202"/>
<path opacity="0.15" d="M161.574 260.689H130.454C130.244 260.689 130.042 260.606 129.892 260.458C129.743 260.31 129.658 260.109 129.656 259.899V259.279C129.656 259.067 129.74 258.865 129.89 258.715C130.04 258.566 130.243 258.482 130.454 258.482H161.574C161.786 258.482 161.989 258.566 162.139 258.715C162.289 258.865 162.373 259.067 162.373 259.279V259.899C162.371 260.109 162.286 260.31 162.137 260.458C161.987 260.606 161.785 260.689 161.574 260.689Z" fill="#020202"/>
<path opacity="0.15" d="M161.574 265.997H144.601C144.389 265.997 144.186 265.913 144.036 265.764C143.887 265.615 143.803 265.412 143.803 265.201V264.587C143.801 264.481 143.82 264.376 143.86 264.278C143.899 264.18 143.957 264.091 144.032 264.015C144.106 263.94 144.195 263.88 144.292 263.839C144.39 263.798 144.495 263.777 144.601 263.777H161.581C161.793 263.777 161.996 263.861 162.145 264.011C162.295 264.16 162.379 264.363 162.379 264.574V265.188C162.379 265.292 162.358 265.396 162.318 265.492C162.278 265.589 162.219 265.677 162.145 265.751C162.071 265.825 161.983 265.883 161.886 265.924C161.789 265.964 161.686 265.984 161.581 265.984L161.574 265.997Z" fill="#020202"/>
<path d="M195.704 292.453C195.704 292.453 194.219 298.643 192.433 297.762C191.93 297.485 191.49 297.107 191.141 296.652C190.792 296.196 190.541 295.674 190.404 295.117L195.704 292.453Z" fill="url(#paint17_linear_4_6)"/>
</g>
<defs>
<linearGradient id="paint0_linear_4_6" x1="250.021" y1="267.943" x2="250.021" y2="368.152" gradientUnits="userSpaceOnUse">
<stop stop-opacity="0.4"/>
<stop offset="1" stop-color="white" stop-opacity="0"/>
</linearGradient>
<linearGradient id="paint1_linear_4_6" x1="111.636" y1="-25.7313" x2="443.458" y2="349.41" gradientUnits="userSpaceOnUse">
<stop offset="0.02" stop-color="white" stop-opacity="0"/>
<stop offset="1" stop-color="white"/>
</linearGradient>
<linearGradient id="paint2_linear_4_6" x1="101258" y1="4088.25" x2="101461" y2="-40774.3" gradientUnits="userSpaceOnUse">
<stop offset="0.02" stop-color="white" stop-opacity="0"/>
<stop offset="1" stop-color="white"/>
</linearGradient>
<linearGradient id="paint3_linear_4_6" x1="30339.3" y1="17491.5" x2="32150.9" y2="-72831.3" gradientUnits="userSpaceOnUse">
<stop offset="0.02" stop-color="white" stop-opacity="0"/>
<stop offset="1" stop-color="white"/>
</linearGradient>
<linearGradient id="paint4_linear_4_6" x1="66937.1" y1="5335.36" x2="67118.7" y2="-24839.8" gradientUnits="userSpaceOnUse">
<stop offset="0.02" stop-color="white" stop-opacity="0"/>
<stop offset="1" stop-color="white"/>
</linearGradient>
<linearGradient id="paint5_linear_4_6" x1="66881.4" y1="8604.59" x2="67063" y2="-21570.6" gradientUnits="userSpaceOnUse">
<stop offset="0.02" stop-color="white" stop-opacity="0"/>
<stop offset="1" stop-color="white"/>
</linearGradient>
<linearGradient id="paint6_linear_4_6" x1="67740.8" y1="688.995" x2="67809.5" y2="-17863.5" gradientUnits="userSpaceOnUse">
<stop offset="0.02" stop-color="white" stop-opacity="0"/>
<stop offset="1" stop-color="white"/>
</linearGradient>
<linearGradient id="paint7_linear_4_6" x1="350.552" y1="376.621" x2="217.602" y2="19.0394" gradientUnits="userSpaceOnUse">
<stop offset="0.58"/>
<stop offset="0.78" stop-opacity="0.16"/>
</linearGradient>
<linearGradient id="paint8_linear_4_6" x1="23462.4" y1="-20483.2" x2="-45486.1" y2="29589.7" gradientUnits="userSpaceOnUse">
<stop offset="0.58"/>
<stop offset="0.78" stop-opacity="0.16"/>
</linearGradient>
<linearGradient id="paint9_linear_4_6" x1="38950.5" y1="596.898" x2="-30002.4" y2="50683.4" gradientUnits="userSpaceOnUse">
<stop offset="0.58"/>
<stop offset="0.78" stop-opacity="0.16"/>
</linearGradient>
<linearGradient id="paint10_linear_4_6" x1="293.9" y1="101.006" x2="305.488" y2="101.006" gradientUnits="userSpaceOnUse">
<stop stop-color="#ECC4D7"/>
<stop offset="0.42" stop-color="#EFD4D1"/>
<stop offset="1" stop-color="#F2EAC9"/>
</linearGradient>
<linearGradient id="paint11_linear_4_6" x1="2660.88" y1="1803.57" x2="2706.62" y2="1803.57" gradientUnits="userSpaceOnUse">
<stop stop-color="#ECC4D7"/>
<stop offset="0.42" stop-color="#EFD4D1"/>
<stop offset="1" stop-color="#F2EAC9"/>
</linearGradient>
<linearGradient id="paint12_linear_4_6" x1="286.329" y1="119.216" x2="297.257" y2="123.397" gradientUnits="userSpaceOnUse">
<stop stop-opacity="0"/>
<stop offset="0.91" stop-opacity="0.8"/>
<stop offset="1"/>
</linearGradient>
<linearGradient id="paint13_linear_4_6" x1="275.376" y1="134.35" x2="309.113" y2="132.468" gradientUnits="userSpaceOnUse">
<stop offset="0.36" stop-color="#00272E"/>
<stop offset="1" stop-color="#69B9EB" stop-opacity="0"/>
</linearGradient>
<linearGradient id="paint14_linear_4_6" x1="3677.92" y1="2628.3" x2="3946.5" y2="2628.3" gradientUnits="userSpaceOnUse">
<stop stop-color="#ECC4D7"/>
<stop offset="0.42" stop-color="#EFD4D1"/>
<stop offset="1" stop-color="#F2EAC9"/>
</linearGradient>
<linearGradient id="paint15_linear_4_6" x1="1817.88" y1="763.702" x2="1863.28" y2="763.702" gradientUnits="userSpaceOnUse">
<stop stop-color="#ECC4D7"/>
<stop offset="0.42" stop-color="#EFD4D1"/>
<stop offset="1" stop-color="#F2EAC9"/>
</linearGradient>
<linearGradient id="paint16_linear_4_6" x1="2374.22" y1="2116.19" x2="2122.55" y2="2125.06" gradientUnits="userSpaceOnUse">
<stop offset="0.36" stop-color="#00272E"/>
<stop offset="1" stop-color="#69B9EB" stop-opacity="0"/>
</linearGradient>
<linearGradient id="paint17_linear_4_6" x1="1758.12" y1="2710.45" x2="1732.71" y2="2776.83" gradientUnits="userSpaceOnUse">
<stop stop-opacity="0"/>
<stop offset="0.91" stop-opacity="0.8"/>
<stop offset="1"/>
</linearGradient>
<clipPath id="clip0_4_6">
<rect width="539" height="370" fill="white"/>
</clipPath>
</defs>
</svg>
